<?xml version="1.0" encoding="utf-8"?>
<!-- Generator: Adobe Illustrator 18.1.1, SVG Export Plug-In . SVG Version: 6.00 Build 0)  -->
<!DOCTYPE svg PUBLIC "-//W3C//DTD SVG 1.1//EN" "http://www.w3.org/Graphics/SVG/1.1/DTD/svg11.dtd">
<svg version="1.1" id="Layer_1" xmlns="http://www.w3.org/2000/svg" xmlns:xlink="http://www.w3.org/1999/xlink" x="0px" y="0px"
	 viewBox="0 0 400 400" enable-background="new 0 0 400 400" xml:space="preserve">
<g>
	<path fill="#C9C9C9" d="M357.4,36.7c0,2.1-1.3,3.8-2.8,3.8H45.4c-1.5,0-2.8-1.7-2.8-3.8V11.8c0-2.1,1.3-3.8,2.8-3.8h309.2
		c1.5,0,2.8,1.7,2.8,3.8V36.7z"/>
	<g>
		<circle fill="#9D9E9D" cx="52.7" cy="17.3" r="4.3"/>
		<circle fill="#9D9E9D" cx="64.8" cy="17.3" r="4.3"/>
		<circle fill="#9D9E9D" cx="76.7" cy="17.3" r="4.3"/>
	</g>
</g>
<path fill="#FAF8DA" stroke="#FAF8DA" stroke-width="0.5" stroke-miterlimit="10" d="M357.4,25.5v363.3c0,1.3-0.4,2.3-0.9,2.3H43.5
	c-0.5,0-0.9-1-0.9-2.3V26.7"/>
<rect x="70.6" y="43" fill="none" width="258.7" height="37"/>
<g enable-background="new    ">
	<path fill="#205D76" d="M99.2,57.7h-3.3L94,50.5c-0.1-0.3-0.2-0.8-0.4-1.6c-0.2-0.8-0.3-1.4-0.3-1.6c0,0.3-0.1,0.9-0.3,1.6
		c-0.2,0.8-0.3,1.3-0.3,1.6l-1.9,7.2h-3.3L84,43.9h2.9l1.8,7.5c0.3,1.4,0.5,2.6,0.7,3.6c0-0.4,0.1-0.9,0.3-1.7s0.3-1.3,0.4-1.8
		l2-7.7h2.8l2,7.7c0.1,0.3,0.2,0.9,0.3,1.6c0.1,0.7,0.2,1.3,0.3,1.8c0.1-0.5,0.2-1.1,0.3-1.8c0.1-0.7,0.3-1.3,0.4-1.8l1.8-7.5h2.9
		L99.2,57.7z"/>
	<path fill="#205D76" d="M109,57.9c-1.7,0-3-0.5-4-1.4c-1-0.9-1.4-2.3-1.4-4c0-1.8,0.4-3.1,1.3-4.1c0.9-1,2.1-1.4,3.7-1.4
		c1.5,0,2.7,0.4,3.5,1.3s1.2,2,1.2,3.5v1.4h-6.8c0,0.8,0.3,1.5,0.7,1.9s1.1,0.7,1.9,0.7c0.6,0,1.2-0.1,1.8-0.2s1.2-0.3,1.8-0.6v2.2
		c-0.5,0.3-1,0.4-1.6,0.6C110.5,57.8,109.8,57.9,109,57.9z M108.6,49c-0.6,0-1.1,0.2-1.4,0.6c-0.3,0.4-0.5,0.9-0.6,1.6h4
		c0-0.7-0.2-1.3-0.6-1.6C109.7,49.2,109.2,49,108.6,49z"/>
	<path fill="#205D76" d="M118.5,57.7h-2.9V43h2.9V57.7z"/>
	<path fill="#205D76" d="M125.8,57.9c-3.3,0-4.9-1.8-4.9-5.4c0-1.8,0.4-3.2,1.3-4.1s2.2-1.4,3.8-1.4c1.2,0,2.3,0.2,3.3,0.7l-0.8,2.2
		c-0.5-0.2-0.9-0.3-1.3-0.4c-0.4-0.1-0.8-0.2-1.2-0.2c-1.5,0-2.2,1.1-2.2,3.2c0,2.1,0.7,3.1,2.2,3.1c0.6,0,1.1-0.1,1.5-0.2
		s0.9-0.4,1.4-0.7v2.5c-0.5,0.3-0.9,0.5-1.4,0.6C127.2,57.8,126.6,57.9,125.8,57.9z"/>
	<path fill="#205D76" d="M141.1,52.4c0,1.7-0.5,3.1-1.4,4c-0.9,1-2.2,1.5-3.8,1.5c-1,0-1.9-0.2-2.7-0.7c-0.8-0.4-1.4-1.1-1.8-1.9
		c-0.4-0.8-0.6-1.8-0.6-2.9c0-1.7,0.4-3.1,1.3-4s2.2-1.4,3.8-1.4c1,0,1.9,0.2,2.7,0.7s1.4,1.1,1.8,1.9
		C140.9,50.3,141.1,51.3,141.1,52.4z M133.8,52.4c0,1,0.2,1.8,0.5,2.4c0.3,0.5,0.9,0.8,1.7,0.8c0.8,0,1.3-0.3,1.7-0.8
		c0.3-0.5,0.5-1.3,0.5-2.4c0-1-0.2-1.8-0.5-2.4s-0.9-0.8-1.7-0.8c-0.8,0-1.3,0.3-1.7,0.8C134,50.6,133.8,51.4,133.8,52.4z"/>
	<path fill="#205D76" d="M152.9,57.7H150v-6.2c0-0.8-0.1-1.3-0.4-1.7c-0.3-0.4-0.7-0.6-1.2-0.6c-0.7,0-1.3,0.3-1.6,0.8
		c-0.3,0.5-0.5,1.4-0.5,2.7v5h-2.9V47.2h2.2l0.4,1.4h0.2c0.3-0.5,0.7-0.9,1.2-1.1c0.5-0.3,1.1-0.4,1.8-0.4c1.6,0,2.6,0.5,3.2,1.5
		h0.3c0.3-0.5,0.7-0.9,1.3-1.1c0.6-0.3,1.2-0.4,1.9-0.4c1.2,0,2.1,0.3,2.7,0.9c0.6,0.6,0.9,1.6,0.9,3v6.9h-2.9v-6.2
		c0-0.8-0.1-1.3-0.4-1.7c-0.3-0.4-0.7-0.6-1.2-0.6c-0.7,0-1.2,0.3-1.6,0.8c-0.3,0.5-0.5,1.3-0.5,2.4V57.7z"/>
	<path fill="#205D76" d="M167.2,57.9c-1.7,0-3-0.5-4-1.4c-1-0.9-1.4-2.3-1.4-4c0-1.8,0.4-3.1,1.3-4.1c0.9-1,2.1-1.4,3.7-1.4
		c1.5,0,2.7,0.4,3.5,1.3s1.2,2,1.2,3.5v1.4h-6.8c0,0.8,0.3,1.5,0.7,1.9s1.1,0.7,1.9,0.7c0.6,0,1.2-0.1,1.8-0.2s1.2-0.3,1.8-0.6v2.2
		c-0.5,0.3-1,0.4-1.6,0.6C168.8,57.8,168.1,57.9,167.2,57.9z M166.8,49c-0.6,0-1.1,0.2-1.4,0.6c-0.3,0.4-0.5,0.9-0.6,1.6h4
		c0-0.7-0.2-1.3-0.6-1.6C167.9,49.2,167.4,49,166.8,49z"/>
	<path fill="#205D76" d="M184.5,57.7h-2.9V46.4h-3.7v-2.4h10.4v2.4h-3.7V57.7z"/>
	<path fill="#205D76" d="M199.7,52.4c0,1.7-0.5,3.1-1.4,4c-0.9,1-2.2,1.5-3.8,1.5c-1,0-1.9-0.2-2.7-0.7c-0.8-0.4-1.4-1.1-1.8-1.9
		c-0.4-0.8-0.6-1.8-0.6-2.9c0-1.7,0.4-3.1,1.3-4s2.2-1.4,3.8-1.4c1,0,1.9,0.2,2.7,0.7s1.4,1.1,1.8,1.9
		C199.5,50.3,199.7,51.3,199.7,52.4z M192.4,52.4c0,1,0.2,1.8,0.5,2.4c0.3,0.5,0.9,0.8,1.7,0.8c0.8,0,1.3-0.3,1.7-0.8
		c0.3-0.5,0.5-1.3,0.5-2.4c0-1-0.2-1.8-0.5-2.4s-0.9-0.8-1.7-0.8c-0.8,0-1.3,0.3-1.7,0.8C192.6,50.6,192.4,51.4,192.4,52.4z"/>
	<path fill="#205D76" d="M212.6,57.7h-2.9V46.4H206v-2.4h10.4v2.4h-3.7V57.7z"/>
	<path fill="#205D76" d="M225.8,57.7l-0.4-1.4h-0.2c-0.3,0.5-0.7,0.9-1.3,1.1s-1.2,0.4-1.9,0.4c-1.2,0-2.2-0.3-2.8-1
		c-0.6-0.7-0.9-1.6-0.9-2.9v-6.9h2.9v6.2c0,0.8,0.1,1.3,0.4,1.7s0.7,0.6,1.3,0.6c0.8,0,1.4-0.3,1.7-0.8c0.4-0.5,0.5-1.4,0.5-2.7v-5
		h2.9v10.6H225.8z"/>
	<path fill="#205D76" d="M235.4,55.6c0.5,0,1.1-0.1,1.8-0.3v2.1c-0.7,0.3-1.6,0.5-2.6,0.5c-1.2,0-2-0.3-2.5-0.9
		c-0.5-0.6-0.8-1.5-0.8-2.6v-5.1h-1.4v-1.2l1.6-1l0.8-2.2h1.8v2.2h3v2.2h-3v5.1c0,0.4,0.1,0.7,0.3,0.9
		C234.8,55.5,235.1,55.6,235.4,55.6z"/>
	<path fill="#205D76" d="M246.7,54.6c0,1.1-0.4,1.9-1.1,2.5c-0.8,0.6-1.9,0.8-3.4,0.8c-0.8,0-1.4-0.1-2-0.2c-0.5-0.1-1-0.3-1.5-0.5
		v-2.4c0.5,0.3,1.1,0.5,1.8,0.6s1.3,0.3,1.8,0.3c1,0,1.6-0.3,1.6-0.9c0-0.2-0.1-0.4-0.2-0.6c-0.1-0.1-0.4-0.3-0.7-0.5
		c-0.3-0.2-0.8-0.4-1.4-0.6c-0.8-0.3-1.4-0.7-1.8-0.9c-0.4-0.3-0.7-0.6-0.8-1s-0.3-0.8-0.3-1.4c0-0.9,0.4-1.7,1.1-2.2
		c0.7-0.5,1.8-0.8,3.1-0.8c1.3,0,2.5,0.3,3.7,0.8l-0.9,2.1c-0.5-0.2-1-0.4-1.5-0.6c-0.5-0.1-0.9-0.2-1.4-0.2c-0.8,0-1.3,0.2-1.3,0.7
		c0,0.3,0.1,0.5,0.4,0.7c0.3,0.2,0.9,0.5,1.8,0.8c0.8,0.3,1.4,0.6,1.8,0.9c0.4,0.3,0.7,0.6,0.8,1C246.7,53.6,246.7,54.1,246.7,54.6z
		"/>
	<path fill="#205D76" d="M252,51.9h-3.7v-2.1h3.7v-3.7h2.1v3.7h3.7v2.1H254v3.6H252V51.9z"/>
	<path fill="#205D76" d="M270.6,57.7h-2.9V46.4h-3.7v-2.4h10.4v2.4h-3.7V57.7z"/>
	<path fill="#205D76" d="M285.8,52.4c0,1.7-0.5,3.1-1.4,4c-0.9,1-2.2,1.5-3.8,1.5c-1,0-1.9-0.2-2.7-0.7c-0.8-0.4-1.4-1.1-1.8-1.9
		c-0.4-0.8-0.6-1.8-0.6-2.9c0-1.7,0.5-3.1,1.4-4c0.9-1,2.2-1.4,3.8-1.4c1,0,1.9,0.2,2.7,0.7s1.4,1.1,1.8,1.9
		C285.6,50.3,285.8,51.3,285.8,52.4z M278.5,52.4c0,1,0.2,1.8,0.5,2.4c0.3,0.5,0.9,0.8,1.7,0.8c0.8,0,1.3-0.3,1.7-0.8
		c0.3-0.5,0.5-1.3,0.5-2.4c0-1-0.2-1.8-0.5-2.4s-0.9-0.8-1.7-0.8c-0.8,0-1.3,0.3-1.7,0.8C278.7,50.6,278.5,51.4,278.5,52.4z"/>
	<path fill="#205D76" d="M296.9,57.7l-0.8-3.7l-1.1-4.7h-0.1l-1.9,8.4h-3.1l-3-10.6h2.9l1.2,4.7c0.2,0.8,0.4,2,0.6,3.5h0.1
		c0-0.5,0.1-1.2,0.3-2.3l0.2-0.8l1.3-5.1h3.2l1.2,5.1c0,0.1,0.1,0.3,0.1,0.6s0.1,0.6,0.2,0.9c0,0.3,0.1,0.6,0.1,0.9
		c0,0.3,0.1,0.5,0.1,0.7h0.1c0.1-0.5,0.2-1.1,0.3-1.9c0.1-0.8,0.2-1.3,0.3-1.6l1.3-4.7h2.8l-3,10.6H296.9z"/>
	<path fill="#205D76" d="M314.5,57.7h-2.9v-6.2c0-0.8-0.1-1.3-0.4-1.7c-0.3-0.4-0.7-0.6-1.3-0.6c-0.8,0-1.4,0.3-1.7,0.8
		s-0.5,1.4-0.5,2.7v5h-2.9V47.2h2.2l0.4,1.4h0.2c0.3-0.5,0.8-0.9,1.3-1.2s1.2-0.4,1.9-0.4c1.2,0,2.2,0.3,2.8,1s1,1.6,1,2.9V57.7z"/>
</g>
<path fill="#FFC122" d="M355.4,393.4H44.6c-1.1,0-2-0.9-2-2v-20c0-1.1,0.9-2,2-2h310.8c1.1,0,2,0.9,2,2v20
	C357.4,392.5,356.5,393.4,355.4,393.4z"/>
<rect x="42.6" y="364" fill="#FAF8DA" width="314.8" height="12.2"/>
<g>
	<path fill="#FFFFFF" d="M141.5,386.6c-0.2,0.1-0.7,0.2-1.2,0.2c-1.3,0-2.2-0.8-2.2-2.3c0-1.4,0.9-2.3,2.3-2.3
		c0.5,0,0.9,0.1,1.1,0.2l-0.1,0.5c-0.2-0.1-0.5-0.2-0.9-0.2c-1.1,0-1.7,0.7-1.7,1.9c0,1.1,0.6,1.8,1.7,1.8c0.3,0,0.7-0.1,0.9-0.2
		L141.5,386.6z"/>
	<path fill="#FFFFFF" d="M142.2,384.5c0-0.4,0-0.7,0-1h0.5v0.7l0,0c0.1-0.5,0.5-0.7,0.9-0.7c0.1,0,0.1,0,0.1,0v0.5
		c-0.1,0-0.1,0-0.2,0c-0.4,0-0.7,0.3-0.8,0.7c0,0.1,0,0.2,0,0.3v1.7h-0.6L142.2,384.5L142.2,384.5z"/>
	<path fill="#FFFFFF" d="M144.7,385.2c0,0.8,0.5,1.1,1.1,1.1c0.4,0,0.7-0.1,0.9-0.1l0.1,0.4c-0.2,0.1-0.5,0.2-1.1,0.2
		c-1,0-1.6-0.7-1.6-1.6s0.6-1.7,1.5-1.7c1.1,0,1.3,0.9,1.3,1.5c0,0.1,0,0.2,0,0.3L144.7,385.2L144.7,385.2z M146.3,384.8
		c0-0.4-0.1-0.9-0.8-0.9c-0.6,0-0.9,0.5-0.9,0.9H146.3z"/>
	<path fill="#FFFFFF" d="M149.5,386.7l-0.1-0.4l0,0c-0.2,0.3-0.5,0.5-1,0.5c-0.7,0-1-0.5-1-0.9c0-0.8,0.7-1.2,1.9-1.2v-0.1
		c0-0.3-0.1-0.7-0.7-0.7c-0.3,0-0.6,0.1-0.9,0.3l-0.1-0.4c0.3-0.2,0.7-0.3,1.1-0.3c1,0,1.2,0.7,1.2,1.3v1.2c0,0.3,0,0.5,0.1,0.8
		L149.5,386.7L149.5,386.7z M149.3,385.1c-0.7,0-1.3,0.1-1.3,0.7c0,0.4,0.3,0.5,0.5,0.5c0.4,0,0.7-0.3,0.8-0.5c0-0.1,0-0.1,0-0.2
		V385.1z"/>
	<path fill="#FFFFFF" d="M151.5,382.6v0.9h0.9v0.5h-0.9v1.7c0,0.4,0.1,0.6,0.5,0.6c0.1,0,0.3,0,0.3-0.1v0.5
		c-0.1,0.1-0.3,0.1-0.5,0.1c-0.3,0-0.5-0.1-0.6-0.3s-0.2-0.5-0.2-0.9v-1.7h-0.5v-0.5h0.5v-0.8L151.5,382.6z"/>
	<path fill="#FFFFFF" d="M153.3,385.2c0,0.8,0.5,1.1,1.1,1.1c0.4,0,0.7-0.1,0.9-0.1l0.1,0.4c-0.2,0.1-0.5,0.2-1.1,0.2
		c-1,0-1.6-0.7-1.6-1.6s0.6-1.7,1.5-1.7c1.1,0,1.3,0.9,1.3,1.5c0,0.1,0,0.2,0,0.3L153.3,385.2L153.3,385.2z M155.1,384.8
		c0-0.4-0.1-0.9-0.8-0.9c-0.6,0-0.9,0.5-0.9,0.9H155.1z"/>
	<path fill="#FFFFFF" d="M159.1,382v3.9c0,0.3,0,0.6,0,0.8h-0.5v-0.5l0,0c-0.2,0.3-0.6,0.6-1.1,0.6c-0.8,0-1.4-0.7-1.4-1.7
		c0-1.1,0.7-1.7,1.5-1.7c0.5,0,0.8,0.2,1,0.5l0,0V382H159.1z M158.5,384.8c0-0.1,0-0.2,0-0.3c-0.1-0.4-0.4-0.7-0.9-0.7
		c-0.6,0-0.9,0.5-0.9,1.3c0,0.7,0.3,1.2,0.9,1.2c0.4,0,0.7-0.3,0.9-0.7c0-0.1,0-0.1,0-0.3V384.8z"/>
	<path fill="#FFFFFF" d="M161.7,383.5l0.4,1.7c0.1,0.3,0.2,0.7,0.3,1l0,0c0.1-0.3,0.2-0.7,0.3-1l0.5-1.7h0.5l0.5,1.6
		c0.1,0.4,0.2,0.7,0.3,1.1l0,0c0.1-0.3,0.1-0.7,0.3-1.1l0.5-1.6h0.6l-1.1,3.2h-0.5l-0.5-1.5c-0.1-0.3-0.2-0.7-0.3-1.1l0,0
		c-0.1,0.4-0.2,0.7-0.3,1.1l-0.5,1.5h-0.5l-1-3.2H161.7z"/>
	<path fill="#FFFFFF" d="M167.1,382.6c0,0.2-0.1,0.3-0.4,0.3c-0.2,0-0.3-0.1-0.3-0.3c0-0.2,0.1-0.3,0.3-0.3
		C166.9,382.3,167.1,382.4,167.1,382.6z M166.4,386.7v-3.2h0.6v3.2H166.4z"/>
	<path fill="#FFFFFF" d="M168.7,382.6v0.9h0.9v0.5h-0.9v1.7c0,0.4,0.1,0.6,0.5,0.6c0.1,0,0.3,0,0.3-0.1v0.5
		c-0.1,0.1-0.3,0.1-0.5,0.1c-0.3,0-0.5-0.1-0.6-0.3s-0.2-0.5-0.2-0.9v-1.7h-0.5v-0.5h0.5v-0.8L168.7,382.6z"/>
	<path fill="#FFFFFF" d="M170.2,382h0.6v2l0,0c0.1-0.1,0.3-0.3,0.4-0.4c0.2-0.1,0.4-0.1,0.6-0.1c0.4,0,1.1,0.3,1.1,1.4v1.9h-0.6
		v-1.9c0-0.5-0.2-0.9-0.7-0.9c-0.4,0-0.7,0.3-0.8,0.6c0,0.1-0.1,0.1-0.1,0.3v1.9h-0.6L170.2,382L170.2,382z"/>
	<path fill="#FFFFFF" d="M175.7,385.2c0,0.8,0.5,1.1,1.1,1.1c0.4,0,0.7-0.1,0.9-0.1l0.1,0.4c-0.2,0.1-0.5,0.2-1.1,0.2
		c-1,0-1.6-0.7-1.6-1.6s0.6-1.7,1.5-1.7c1.1,0,1.3,0.9,1.3,1.5c0,0.1,0,0.2,0,0.3L175.7,385.2L175.7,385.2z M177.3,384.8
		c0-0.4-0.1-0.9-0.8-0.9c-0.6,0-0.9,0.5-0.9,0.9H177.3z"/>
	<path fill="#FFFFFF" d="M178.7,384.4c0-0.3,0-0.6,0-0.9h0.5l0.1,0.5l0,0c0.1-0.3,0.5-0.6,1.1-0.6c0.5,0,1.1,0.3,1.1,1.4v1.9h-0.6
		v-1.9c0-0.5-0.2-0.9-0.7-0.9c-0.4,0-0.7,0.3-0.8,0.6c0,0.1-0.1,0.2-0.1,0.3v1.9h-0.6V384.4z"/>
	<path fill="#FFFFFF" d="M183,382.6v0.9h0.9v0.5H183v1.7c0,0.4,0.1,0.6,0.5,0.6c0.1,0,0.3,0,0.3-0.1v0.5c-0.1,0.1-0.3,0.1-0.5,0.1
		s-0.5-0.1-0.6-0.3s-0.2-0.5-0.2-0.9v-1.7h-0.5v-0.5h0.5v-0.8L183,382.6z"/>
	<path fill="#FFFFFF" d="M184.5,382h0.6v2l0,0c0.1-0.1,0.3-0.3,0.4-0.4c0.2-0.1,0.4-0.1,0.6-0.1c0.4,0,1.1,0.3,1.1,1.4v1.9h-0.6
		v-1.9c0-0.5-0.2-0.9-0.7-0.9c-0.4,0-0.7,0.3-0.8,0.6c0,0.1-0.1,0.1-0.1,0.3v1.9h-0.6L184.5,382L184.5,382z"/>
	<path fill="#FFFFFF" d="M190.9,385.9c0,0.3,0,0.6,0,0.9h-0.5v-0.5l0,0c-0.1,0.3-0.5,0.6-1.1,0.6c-0.5,0-1.1-0.3-1.1-1.4v-1.9h0.6
		v1.8c0,0.6,0.2,1,0.7,1c0.4,0,0.7-0.3,0.8-0.5c0-0.1,0.1-0.2,0.1-0.3v-2h0.6L190.9,385.9L190.9,385.9z"/>
	<path fill="#FFFFFF" d="M191.8,386.1c0.2,0.1,0.5,0.2,0.8,0.2c0.4,0,0.6-0.2,0.6-0.5s-0.1-0.4-0.6-0.6c-0.6-0.2-0.9-0.5-0.9-0.9
		c0-0.5,0.4-0.9,1.1-0.9c0.3,0,0.6,0.1,0.8,0.2l-0.1,0.4c-0.1-0.1-0.3-0.2-0.7-0.2c-0.3,0-0.5,0.2-0.5,0.5c0,0.3,0.2,0.4,0.6,0.5
		c0.5,0.2,0.9,0.5,0.9,1s-0.5,0.9-1.2,0.9c-0.3,0-0.7-0.1-0.9-0.2L191.8,386.1z"/>
	<path fill="#FFFFFF" d="M195.2,382.6c0,0.2-0.1,0.3-0.4,0.3c-0.2,0-0.3-0.1-0.3-0.3c0-0.2,0.1-0.3,0.3-0.3
		C195.1,382.3,195.2,382.4,195.2,382.6z M194.5,386.7v-3.2h0.6v3.2H194.5z"/>
	<path fill="#FFFFFF" d="M197.9,386.7l-0.1-0.4l0,0c-0.2,0.3-0.5,0.5-1,0.5c-0.7,0-1-0.5-1-0.9c0-0.8,0.7-1.2,1.9-1.2v-0.1
		c0-0.3-0.1-0.7-0.7-0.7c-0.3,0-0.6,0.1-0.9,0.3l-0.1-0.4c0.3-0.2,0.7-0.3,1.1-0.3c1,0,1.2,0.7,1.2,1.3v1.2c0,0.3,0,0.5,0.1,0.8
		L197.9,386.7L197.9,386.7z M197.8,385.1c-0.7,0-1.3,0.1-1.3,0.7c0,0.4,0.3,0.5,0.5,0.5c0.4,0,0.7-0.3,0.8-0.5c0-0.1,0-0.1,0-0.2
		V385.1z"/>
	<path fill="#FFFFFF" d="M199.3,386.1c0.2,0.1,0.5,0.2,0.8,0.2c0.4,0,0.6-0.2,0.6-0.5s-0.1-0.4-0.6-0.6c-0.6-0.2-0.9-0.5-0.9-0.9
		c0-0.5,0.4-0.9,1.1-0.9c0.3,0,0.6,0.1,0.8,0.2L201,384c-0.1-0.1-0.3-0.2-0.7-0.2s-0.5,0.2-0.5,0.5c0,0.3,0.2,0.4,0.6,0.5
		c0.5,0.2,0.9,0.5,0.9,1s-0.5,0.9-1.2,0.9c-0.3,0-0.7-0.1-0.9-0.2L199.3,386.1z"/>
	<path fill="#FFFFFF" d="M201.9,384.4c0-0.3,0-0.6,0-0.9h0.5v0.5l0,0c0.2-0.3,0.5-0.6,1-0.6c0.5,0,0.8,0.3,0.9,0.7l0,0
		c0.1-0.2,0.2-0.3,0.3-0.4c0.2-0.1,0.4-0.2,0.7-0.2c0.4,0,1.1,0.3,1.1,1.4v1.9H206V385c0-0.6-0.2-1-0.7-1c-0.3,0-0.6,0.3-0.7,0.5
		c0,0.1-0.1,0.2-0.1,0.3v2H204v-1.9c0-0.5-0.2-0.9-0.7-0.9c-0.3,0-0.6,0.3-0.7,0.6c0,0.1-0.1,0.2-0.1,0.3v1.9h-0.6V384.4z"/>
	<path fill="#FFFFFF" d="M208.9,386.7c0-0.2,0-0.5,0-0.8V382h0.6v2l0,0c0.2-0.3,0.6-0.6,1.1-0.6c0.8,0,1.3,0.7,1.3,1.7
		c0,1.1-0.7,1.7-1.5,1.7c-0.5,0-0.9-0.2-1.1-0.6l0,0v0.5L208.9,386.7L208.9,386.7z M209.5,385.5c0,0.1,0,0.1,0,0.2
		c0.1,0.4,0.5,0.7,0.9,0.7c0.6,0,1-0.5,1-1.3c0-0.7-0.3-1.2-0.9-1.2c-0.4,0-0.8,0.3-0.9,0.7c0,0.1,0,0.1,0,0.3L209.5,385.5
		L209.5,385.5z"/>
	<path fill="#FFFFFF" d="M212.9,383.5l0.7,1.9c0.1,0.2,0.1,0.5,0.2,0.7l0,0c0.1-0.2,0.1-0.5,0.2-0.7l0.7-1.9h0.6l-0.9,2.3
		c-0.4,1.1-0.7,1.7-1.1,2c-0.3,0.3-0.6,0.3-0.7,0.4l-0.1-0.5c0.1-0.1,0.3-0.1,0.5-0.3c0.1-0.1,0.3-0.3,0.5-0.7
		c0-0.1,0.1-0.1,0.1-0.1s0-0.1-0.1-0.1l-1.2-3L212.9,383.5L212.9,383.5z"/>
	<path fill="#FFFFFF" d="M219.5,386.6c-0.1,0.1-0.5,0.2-0.9,0.2c-1,0-1.6-0.7-1.6-1.7s0.7-1.7,1.7-1.7c0.3,0,0.7,0.1,0.8,0.1
		l-0.1,0.5c-0.1-0.1-0.3-0.1-0.7-0.1c-0.7,0-1.1,0.5-1.1,1.2c0,0.7,0.5,1.2,1.1,1.2c0.3,0,0.5-0.1,0.7-0.1L219.5,386.6z"/>
	<path fill="#FFFFFF" d="M222,386.7l-0.1-0.4l0,0c-0.2,0.3-0.5,0.5-1,0.5c-0.7,0-1-0.5-1-0.9c0-0.8,0.7-1.2,1.9-1.2v-0.1
		c0-0.3-0.1-0.7-0.7-0.7c-0.3,0-0.6,0.1-0.9,0.3l-0.1-0.4c0.3-0.2,0.7-0.3,1.1-0.3c1,0,1.2,0.7,1.2,1.3v1.2c0,0.3,0,0.5,0.1,0.8
		L222,386.7L222,386.7z M221.9,385.1c-0.7,0-1.3,0.1-1.3,0.7c0,0.4,0.3,0.5,0.5,0.5c0.4,0,0.7-0.3,0.8-0.5c0-0.1,0-0.1,0-0.2V385.1z
		"/>
	<path fill="#FFFFFF" d="M223.4,384.5c0-0.4,0-0.7,0-1h0.5v0.7l0,0c0.1-0.5,0.5-0.7,0.9-0.7c0.1,0,0.1,0,0.1,0v0.5
		c-0.1,0-0.1,0-0.2,0c-0.4,0-0.7,0.3-0.8,0.7c0,0.1,0,0.2,0,0.3v1.7h-0.6L223.4,384.5L223.4,384.5z"/>
	<path fill="#FFFFFF" d="M226.3,382.6c0,0.2-0.1,0.3-0.4,0.3c-0.2,0-0.3-0.1-0.3-0.3c0-0.2,0.1-0.3,0.3-0.3
		C226.1,382.3,226.3,382.4,226.3,382.6z M225.7,386.7v-3.2h0.6v3.2H225.7z"/>
	<path fill="#FFFFFF" d="M227.2,384.4c0-0.3,0-0.6,0-0.9h0.5l0.1,0.5l0,0c0.1-0.3,0.5-0.6,1.1-0.6c0.5,0,1.1,0.3,1.1,1.4v1.9h-0.7
		v-1.9c0-0.5-0.2-0.9-0.7-0.9c-0.4,0-0.7,0.3-0.8,0.6c0,0.1-0.1,0.2-0.1,0.3v1.9h-0.6L227.2,384.4L227.2,384.4z"/>
	<path fill="#FFFFFF" d="M233.7,383.5c0,0.3,0,0.5,0,0.9v1.9c0,0.7-0.1,1.2-0.5,1.5c-0.3,0.3-0.7,0.4-1.2,0.4
		c-0.4,0-0.8-0.1-1.1-0.3l0.1-0.5c0.2,0.1,0.5,0.3,0.9,0.3c0.6,0,1.1-0.3,1.1-1.1v-0.3l0,0c-0.2,0.3-0.5,0.5-1,0.5
		c-0.8,0-1.4-0.7-1.4-1.6c0-1.1,0.7-1.7,1.5-1.7c0.5,0,0.9,0.3,1,0.5l0,0v-0.5L233.7,383.5L233.7,383.5z M233.1,384.8
		c0-0.1,0-0.2-0.1-0.3c-0.1-0.3-0.4-0.6-0.8-0.6c-0.5,0-0.9,0.5-0.9,1.2c0,0.6,0.3,1.1,0.9,1.1c0.3,0,0.7-0.2,0.8-0.6
		c0-0.1,0.1-0.2,0.1-0.3V384.8z"/>
	<path fill="#FFFFFF" d="M236.1,384.5c0-0.4,0-0.7,0-1h0.5v0.7l0,0c0.1-0.5,0.5-0.7,0.9-0.7c0.1,0,0.1,0,0.1,0v0.5
		c-0.1,0-0.1,0-0.2,0c-0.4,0-0.7,0.3-0.8,0.7c0,0.1,0,0.2,0,0.3v1.7H236L236.1,384.5L236.1,384.5z"/>
	<path fill="#FFFFFF" d="M238.5,385.2c0,0.8,0.5,1.1,1.1,1.1c0.4,0,0.7-0.1,0.9-0.1l0.1,0.4c-0.2,0.1-0.5,0.2-1.1,0.2
		c-1,0-1.6-0.7-1.6-1.6s0.6-1.7,1.5-1.7c1.1,0,1.3,0.9,1.3,1.5c0,0.1,0,0.2,0,0.3L238.5,385.2L238.5,385.2z M240.2,384.8
		c0-0.4-0.1-0.9-0.8-0.9c-0.6,0-0.9,0.5-0.9,0.9H240.2z"/>
	<path fill="#FFFFFF" d="M241.4,386.1c0.2,0.1,0.5,0.2,0.8,0.2c0.4,0,0.6-0.2,0.6-0.5s-0.1-0.4-0.6-0.6c-0.6-0.2-0.9-0.5-0.9-0.9
		c0-0.5,0.4-0.9,1.1-0.9c0.3,0,0.6,0.1,0.8,0.2l-0.1,0.4c-0.1-0.1-0.3-0.2-0.7-0.2c-0.3,0-0.5,0.2-0.5,0.5c0,0.3,0.2,0.4,0.6,0.5
		c0.5,0.2,0.9,0.5,0.9,1s-0.5,0.9-1.2,0.9c-0.3,0-0.7-0.1-0.9-0.2L241.4,386.1z"/>
	<path fill="#FFFFFF" d="M244.8,382.6c0,0.2-0.1,0.3-0.4,0.3c-0.2,0-0.3-0.1-0.3-0.3c0-0.2,0.1-0.3,0.3-0.3
		C244.7,382.3,244.8,382.4,244.8,382.6z M244.1,386.7v-3.2h0.6v3.2H244.1z"/>
	<path fill="#FFFFFF" d="M248.5,382v3.9c0,0.3,0,0.6,0,0.8H248v-0.5l0,0c-0.2,0.3-0.6,0.6-1.1,0.6c-0.8,0-1.4-0.7-1.4-1.7
		c0-1.1,0.7-1.7,1.5-1.7c0.5,0,0.8,0.2,1,0.5l0,0V382H248.5z M247.9,384.8c0-0.1,0-0.2,0-0.3c-0.1-0.4-0.4-0.7-0.9-0.7
		c-0.6,0-0.9,0.5-0.9,1.3c0,0.7,0.3,1.2,0.9,1.2c0.4,0,0.7-0.3,0.9-0.7c0-0.1,0-0.1,0-0.3V384.8z"/>
	<path fill="#FFFFFF" d="M249.8,385.2c0,0.8,0.5,1.1,1.1,1.1c0.4,0,0.7-0.1,0.9-0.1l0.1,0.4c-0.2,0.1-0.5,0.2-1.1,0.2
		c-1,0-1.6-0.7-1.6-1.6s0.6-1.7,1.5-1.7c1.1,0,1.3,0.9,1.3,1.5c0,0.1,0,0.2,0,0.3L249.8,385.2L249.8,385.2z M251.5,384.8
		c0-0.4-0.1-0.9-0.8-0.9c-0.6,0-0.9,0.5-0.9,0.9H251.5z"/>
	<path fill="#FFFFFF" d="M252.8,384.4c0-0.3,0-0.6,0-0.9h0.5l0.1,0.5l0,0c0.1-0.3,0.5-0.6,1.1-0.6c0.5,0,1.1,0.3,1.1,1.4v1.9H255
		v-1.9c0-0.5-0.2-0.9-0.7-0.9c-0.4,0-0.7,0.3-0.8,0.6c0,0.1-0.1,0.2-0.1,0.3v1.9h-0.6V384.4z"/>
	<path fill="#FFFFFF" d="M257.2,382.6v0.9h0.9v0.5h-0.9v1.7c0,0.4,0.1,0.6,0.5,0.6c0.1,0,0.3,0,0.3-0.1v0.5
		c-0.1,0.1-0.3,0.1-0.5,0.1s-0.5-0.1-0.6-0.3c-0.1-0.2-0.2-0.5-0.2-0.9v-1.7h-0.5v-0.5h0.5v-0.8L257.2,382.6z"/>
	<path fill="#FFFFFF" d="M258.6,386.1c0.2,0.1,0.5,0.2,0.8,0.2c0.4,0,0.6-0.2,0.6-0.5s-0.1-0.4-0.6-0.6c-0.6-0.2-0.9-0.5-0.9-0.9
		c0-0.5,0.4-0.9,1.1-0.9c0.3,0,0.6,0.1,0.8,0.2l-0.1,0.4c-0.1-0.1-0.3-0.2-0.7-0.2c-0.3,0-0.5,0.2-0.5,0.5c0,0.3,0.2,0.4,0.6,0.5
		c0.5,0.2,0.9,0.5,0.9,1s-0.5,0.9-1.2,0.9c-0.3,0-0.7-0.1-0.9-0.2L258.6,386.1z"/>
	<path fill="#FFFFFF" d="M261.1,386.4c0-0.3,0.1-0.4,0.4-0.4s0.4,0.2,0.4,0.4c0,0.3-0.1,0.4-0.4,0.4
		C261.3,386.8,261.1,386.6,261.1,386.4z"/>
</g>
<g>
	<g>
		<g>
			<path fill="#FFC122" d="M215.5,74c16.9,0,33.9,0,50.9,0c8.8,0,17.6,0,26.4,0c0.6,0,1.9,0.3,2.5,0c0.5-0.3,0-0.7-0.3-0.3
				c-0.3,0.5,0,1.9,0,2.5c0,1.5,0,3,0,4.5c0,20.9,0,41.7,0,62.5c0,3.1,0,6.3,0,9.4c0,0.5-0.1,1.1,0,1.6c-0.1-0.1,0.9-0.5,0.5-0.6
				c-0.1,0-0.3,0.1-0.3,0c-0.8-0.5-3.1,0-4,0c-2.5,0-5,0-7.5,0c-18.5,0-37,0-55.5,0c-23.2,0-46.4,0-69.6,0c-16.1,0-32.3,0-48.5,0
				c-1.5,0-3.3-0.2-4.9,0c-0.3,0.1-0.7-0.1-0.9,0c-0.2,0.1,0.6,0.6,0.6,0.6c0.1-0.2-0.1-0.4,0-0.6c0.3-0.7,0-2.1,0-2.9
				c0-1.6,0-3.3,0-4.9c0-4.6,0-9.2,0-13.8c0-11.5,0-23,0-34.5c0-4.8,0-9.6,0-14.4c0-2.9,0.3-5.9,0-8.7c-0.2-1.8,0.4-0.3-0.6-0.5
				c0.6,0.1,1.5,0,2.1,0c4.1,0,8.3,0,12.4,0c10.8,0,21.7,0,32.5,0c2.1,0,4.2,0,6.3,0c0.8,0,0.8-1.3,0-1.3c-17.8,0-35.5,0-53.3,0
				c-0.3,0-0.7,0.3-0.7,0.7c0,23.6,0,47.2,0,70.9c0,3.4,0,6.7,0,10.1c0,0.3,0.3,0.7,0.7,0.7c21.5,0,43,0,64.5,0
				c34.3,0,68.6,0,102.9,0c7.9,0,15.9,0,23.8,0c0.3,0,0.7-0.3,0.7-0.7c0-23.6,0-47.2,0-70.9c0-3.4,0-6.7,0-10.1
				c0-0.3-0.3-0.7-0.7-0.7c-23.4,0-46.7,0-70.1,0c-3.3,0-6.7,0-10,0C214.7,72.7,214.7,74,215.5,74L215.5,74z"/>
		</g>
	</g>
	<path fill="#FFFFFF" d="M243.9,98.9c0,0.7-0.2,1.3-0.5,1.9c-0.5,0.9-1.5,1.6-2.5,1.8c-0.1,0-0.3,0-0.5,0h-22.1c-0.1,0-0.2,0-0.3,0
		c-0.1,0-0.2,0-0.3,0c-2.1,0-3.7-1.7-3.7-3.7s1.7-3.7,3.7-3.7c0.2,0,0.4,0,0.6,0.1c-0.1-0.9-0.1-1.8,0.2-2.7c1-3.4,4.5-5.3,7.9-4.3
		c1.7,0.5,3.1,1.7,3.9,3.1c0.8-0.5,1.7-0.8,2.7-0.8c2.9,0,5.3,2.3,5.3,5.2c0.5-0.3,1.2-0.5,1.9-0.5
		C242.3,95.2,243.9,96.9,243.9,98.9z"/>
	<path fill="#FFFFFF" d="M288.5,80.1c0,0.7-0.2,1.3-0.5,1.9c-0.5,0.9-1.5,1.6-2.5,1.8c-0.1,0-0.3,0-0.5,0h-22.1c-0.1,0-0.2,0-0.3,0
		s-0.2,0-0.3,0c-2.1,0-3.7-1.7-3.7-3.7s1.7-3.7,3.7-3.7c0.2,0,0.4,0,0.6,0.1c-0.1-0.9-0.1-1.8,0.2-2.7c1-3.4,4.5-5.3,7.9-4.3
		c1.7,0.5,3.1,1.7,3.9,3.1c0.8-0.5,1.7-0.8,2.7-0.8c2.9,0,5.3,2.3,5.3,5.2c0.5-0.3,1.2-0.5,1.9-0.5C286.9,76.3,288.5,78,288.5,80.1z
		"/>
	<path fill="#FFFFFF" d="M175.6,89.4c0,0.7-0.2,1.3-0.5,1.9c-0.5,0.9-1.5,1.6-2.5,1.8c-0.1,0-0.3,0-0.5,0H150c-0.1,0-0.2,0-0.3,0
		s-0.2,0-0.3,0c-2.1,0-3.7-1.7-3.7-3.7s1.7-3.7,3.7-3.7c0.2,0,0.4,0,0.6,0.1c-0.1-0.9-0.1-1.8,0.2-2.7c1-3.4,4.5-5.3,7.9-4.3
		c1.7,0.5,3.1,1.7,3.9,3.1c0.8-0.5,1.7-0.8,2.7-0.8c2.9,0,5.3,2.3,5.3,5.2c0.5-0.3,1.2-0.5,1.9-0.5
		C173.9,85.7,175.6,87.3,175.6,89.4z"/>
	<line fill="none" stroke="#FFC122" stroke-width="0.5718" stroke-miterlimit="10" x1="176.6" y1="147.9" x2="188.1" y2="147.9"/>
	<line fill="none" stroke="#FFC122" stroke-width="0.5718" stroke-miterlimit="10" x1="176.6" y1="148.1" x2="188.2" y2="148.1"/>
	<polyline fill="#FFC122" points="172.5,154.8 172.5,113.1 192.3,113.1 192.3,154.6 	"/>
	<rect x="182.5" y="78.1" fill="#62D4D4" width="14.5" height="5"/>
	<path fill="#205D76" d="M183.1,90.7c0,7.6-0.3,13.7-0.6,13.7s-0.6-6.1-0.6-13.7s0.3-13.7,0.6-13.7S183.1,83.1,183.1,90.7z"/>
	<circle fill="#205D76" cx="182.6" cy="77.1" r="0.7"/>
	<circle fill="#205D76" cx="182.6" cy="83.8" r="0.7"/>
	<polygon fill="#62D4D4" points="213.3,85.7 196.7,85.7 196.7,80.6 213.3,80.6 208.9,83.3 	"/>
	<rect x="185.3" y="79" fill="none" width="18.4" height="6.4"/>
	<g enable-background="new    ">
		<path fill="#205D76" d="M186.3,81.3c0.1,0,0.2,0,0.3,0v0.3c0,0-0.1,0-0.2,0c-0.1,0-0.1,0-0.2,0c-0.4,0-0.6-0.2-0.6-0.6v-1h-0.3
			v-0.2l0.3-0.1l0.1-0.4h0.2v0.4h0.5V80H186v1c0,0.1,0,0.2,0.1,0.2C186.2,81.3,186.2,81.3,186.3,81.3z"/>
		<path fill="#205D76" d="M188.3,81.6l-0.1-0.2h0c-0.1,0.1-0.1,0.2-0.2,0.2c-0.1,0-0.2,0.1-0.4,0.1c-0.2,0-0.4-0.1-0.5-0.2
			c-0.1-0.1-0.2-0.3-0.2-0.5v-1.2h0.4v1.2c0,0.1,0,0.3,0.1,0.3s0.2,0.1,0.3,0.1c0.2,0,0.3,0,0.4-0.1c0.1-0.1,0.1-0.3,0.1-0.5v-0.9
			h0.4v1.9H188.3z"/>
		<path fill="#205D76" d="M189.9,81.3c0.1,0,0.2,0,0.3,0v0.3c0,0-0.1,0-0.2,0c-0.1,0-0.1,0-0.2,0c-0.4,0-0.6-0.2-0.6-0.6v-1h-0.3
			v-0.2l0.3-0.1l0.1-0.4h0.2v0.4h0.5V80h-0.5v1c0,0.1,0,0.2,0.1,0.2C189.7,81.3,189.8,81.3,189.9,81.3z"/>
		<path fill="#205D76" d="M191.8,81.1c0,0.2-0.1,0.3-0.2,0.4s-0.3,0.1-0.6,0.1c-0.2,0-0.5,0-0.6-0.1v-0.3c0.2,0.1,0.4,0.2,0.6,0.2
			c0.2,0,0.4-0.1,0.4-0.2c0,0,0-0.1,0-0.1c0,0-0.1-0.1-0.1-0.1c-0.1,0-0.1-0.1-0.3-0.1c-0.2-0.1-0.4-0.2-0.4-0.3
			c-0.1-0.1-0.1-0.2-0.1-0.3c0-0.2,0.1-0.3,0.2-0.4s0.3-0.1,0.5-0.1c0.2,0,0.4,0,0.6,0.1l-0.1,0.3c-0.2-0.1-0.4-0.1-0.5-0.1
			c-0.2,0-0.3,0.1-0.3,0.2c0,0.1,0,0.1,0.1,0.1c0.1,0,0.2,0.1,0.4,0.2c0.2,0.1,0.3,0.1,0.3,0.2c0.1,0,0.1,0.1,0.2,0.2
			C191.8,80.9,191.8,81,191.8,81.1z"/>
	</g>
	<rect x="199" y="81.4" fill="none" width="18.4" height="5.2"/>
	<g enable-background="new    ">
		<path fill="#205D76" d="M200,83.7c0.1,0,0.2,0,0.3,0V84c0,0-0.1,0-0.2,0c-0.1,0-0.1,0-0.2,0c-0.4,0-0.6-0.2-0.6-0.6v-1h-0.3v-0.2
			l0.3-0.1l0.1-0.4h0.2v0.4h0.5v0.3h-0.5v1c0,0.1,0,0.2,0.1,0.2C199.8,83.7,199.9,83.7,200,83.7z"/>
		<path fill="#205D76" d="M202.3,83.1c0,0.3-0.1,0.5-0.2,0.7c-0.2,0.2-0.4,0.3-0.7,0.3c-0.2,0-0.3,0-0.5-0.1
			c-0.1-0.1-0.2-0.2-0.3-0.3s-0.1-0.3-0.1-0.5c0-0.3,0.1-0.5,0.2-0.7c0.2-0.2,0.4-0.3,0.7-0.3c0.3,0,0.5,0.1,0.6,0.3
			C202.2,82.6,202.3,82.8,202.3,83.1z M200.9,83.1c0,0.4,0.2,0.6,0.5,0.6c0.3,0,0.5-0.2,0.5-0.6c0-0.4-0.2-0.6-0.5-0.6
			c-0.2,0-0.3,0.1-0.4,0.2S200.9,82.9,200.9,83.1z"/>
		<path fill="#205D76" d="M204.3,84l-0.2-0.9c0-0.1-0.1-0.3-0.2-0.6h0c-0.1,0.3-0.1,0.5-0.2,0.6l-0.2,0.9H203l-0.5-1.9h0.4l0.2,0.9
			c0.1,0.2,0.1,0.4,0.1,0.6h0c0-0.1,0-0.2,0.1-0.3c0-0.1,0-0.2,0.1-0.2l0.3-1h0.4l0.3,1c0,0.1,0,0.1,0.1,0.3s0,0.2,0,0.3h0
			c0-0.1,0.1-0.3,0.1-0.6l0.2-0.9h0.4l-0.5,1.9H204.3z"/>
		<path fill="#205D76" d="M207.2,84h-0.4v-1.2c0-0.1,0-0.3-0.1-0.3c-0.1-0.1-0.2-0.1-0.3-0.1c-0.2,0-0.3,0-0.4,0.1
			c-0.1,0.1-0.1,0.3-0.1,0.5V84h-0.4v-1.9h0.3l0.1,0.2h0c0.1-0.1,0.1-0.2,0.2-0.2c0.1,0,0.2-0.1,0.3-0.1c0.5,0,0.7,0.2,0.7,0.7V84z"
			/>
	</g>
	<g>
		<path fill="#205D76" stroke="#205D76" stroke-width="0.2913" stroke-miterlimit="10" d="M192.7,79.9v0.5h0.5v0.2h-0.5v0.5h-0.3
			v-0.5H192v-0.2h0.5v-0.5C192.5,79.9,192.7,79.9,192.7,79.9z"/>
	</g>
	<ellipse fill="#205D76" stroke="#205D76" stroke-width="0.2913" stroke-miterlimit="10" cx="182.5" cy="93.2" rx="1.7" ry="0.4"/>
	<polygon fill="#205D76" stroke="#205D76" stroke-width="0.2913" stroke-miterlimit="10" points="182.6,93.1 188.4,103.1 
		194.1,113.1 182.6,113.1 171.1,113.1 176.9,103.1 	"/>
	<ellipse fill="#205D76" stroke="#205D76" stroke-width="0.2913" stroke-miterlimit="10" cx="182.5" cy="100.1" rx="5.3" ry="0.9"/>
	<path fill="#205D76" stroke="#205D76" stroke-width="0.359" stroke-miterlimit="10" d="M195.4,112.3c0,1.7-5.7,1.5-12.8,1.5
		c-7.1,0-12.8,0.3-12.8-1.5c0-1.7,5.7-3.1,12.8-3.1C189.7,109.3,195.4,110.7,195.4,112.3z"/>
	<g>
		<path fill="#EA6E2F" d="M192.3,123.7L192.3,123.7c0,0.1,0,0.1,0,0.1c0,0.9-0.7,1.6-1.6,1.6c-0.6,0-1.1-0.3-1.4-0.8
			c-0.3,0.5-0.8,0.8-1.4,0.8s-1.1-0.3-1.4-0.9c-0.3,0.5-0.8,0.8-1.4,0.8c-0.6,0-1.1-0.3-1.4-0.9c-0.3,0.5-0.8,0.8-1.4,0.8
			c-0.6,0-1.1-0.3-1.4-0.9c-0.3,0.5-0.8,0.9-1.5,0.9c-0.6,0-1.1-0.3-1.4-0.8c-0.3,0.5-0.8,0.8-1.4,0.8c-0.5,0-1.1-0.3-1.3-0.7
			c-0.3,0.4-0.7,0.7-1.3,0.7c-0.9,0-1.6-0.7-1.6-1.6V122h19.8L192.3,123.7L192.3,123.7z"/>
	</g>
	<rect x="176.8" y="129.9" fill="#FFFFFF" width="11.6" height="19.6"/>
	<polygon fill="#FF5774" points="189.5,132.1 175.6,132.1 176.9,129.5 188.2,129.5 	"/>
	<line fill="none" stroke="#FFC122" stroke-width="0.5718" stroke-miterlimit="10" x1="178.9" y1="143" x2="178.9" y2="150.1"/>
	<line fill="none" stroke="#FFC122" stroke-width="0.5718" stroke-miterlimit="10" x1="181.3" y1="143.1" x2="181.3" y2="150.1"/>
	<line fill="none" stroke="#FFC122" stroke-width="0.5718" stroke-miterlimit="10" x1="183.7" y1="143" x2="183.7" y2="150.1"/>
	<line fill="none" stroke="#FFC122" stroke-width="0.5718" stroke-miterlimit="10" x1="186.2" y1="143" x2="186.2" y2="150.1"/>
	<line fill="none" stroke="#FFC122" stroke-width="0.5718" stroke-miterlimit="10" x1="176.3" y1="147.9" x2="188.5" y2="147.9"/>
	<line fill="none" stroke="#FFC122" stroke-width="0.5718" stroke-miterlimit="10" x1="176.5" y1="144.8" x2="188.7" y2="144.8"/>
	<g>
		<path fill="#FFC122" d="M178.8,142.5c0.1-0.1,0.1-0.1,0.2,0c0.1,0.1,0.1,0.3,0.2,0.4c0.1,0.1,0,0.2-0.1,0.2c-0.1,0-0.3,0-0.5,0
			c-0.1,0-0.2-0.1-0.1-0.2S178.7,142.6,178.8,142.5z"/>
		<path fill="none" stroke="#FFC122" stroke-width="0.3533" stroke-miterlimit="10" d="M178.8,142.5c0.1-0.1,0.1-0.1,0.2,0
			c0.1,0.1,0.1,0.3,0.2,0.4c0.1,0.1,0,0.2-0.1,0.2c-0.1,0-0.3,0-0.5,0c-0.1,0-0.2-0.1-0.1-0.2S178.7,142.6,178.8,142.5z"/>
	</g>
	<g>
		<path fill="#FFC122" d="M183.7,142.4c0.1-0.1,0.1-0.1,0.2,0c0.1,0.1,0.1,0.3,0.2,0.4c0.1,0.1,0,0.2-0.1,0.2c-0.1,0-0.3,0-0.5,0
			c-0.1,0-0.2-0.1-0.1-0.2C183.5,142.7,183.6,142.5,183.7,142.4z"/>
		<path fill="none" stroke="#FFC122" stroke-width="0.3533" stroke-miterlimit="10" d="M183.7,142.4c0.1-0.1,0.1-0.1,0.2,0
			c0.1,0.1,0.1,0.3,0.2,0.4c0.1,0.1,0,0.2-0.1,0.2c-0.1,0-0.3,0-0.5,0c-0.1,0-0.2-0.1-0.1-0.2C183.5,142.7,183.6,142.5,183.7,142.4z
			"/>
	</g>
	<g>
		<path fill="#FFC122" d="M181.1,142.4c0.1-0.1,0.1-0.1,0.2,0c0.1,0.1,0.1,0.3,0.2,0.4c0.1,0.1,0,0.2-0.1,0.2c-0.1,0-0.3,0-0.5,0
			c-0.1,0-0.2-0.1-0.1-0.2C181,142.7,181.1,142.5,181.1,142.4z"/>
		<path fill="none" stroke="#FFC122" stroke-width="0.3533" stroke-miterlimit="10" d="M181.1,142.4c0.1-0.1,0.1-0.1,0.2,0
			c0.1,0.1,0.1,0.3,0.2,0.4c0.1,0.1,0,0.2-0.1,0.2c-0.1,0-0.3,0-0.5,0c-0.1,0-0.2-0.1-0.1-0.2C181,142.7,181.1,142.5,181.1,142.4z"
			/>
	</g>
	<g>
		<path fill="#FFC122" d="M186.1,142.4c0.1-0.1,0.1-0.1,0.2,0c0.1,0.1,0.1,0.3,0.2,0.4c0.1,0.1,0,0.2-0.1,0.2c-0.1,0-0.3,0-0.5,0
			c-0.1,0-0.2-0.1-0.1-0.2C185.9,142.7,186,142.5,186.1,142.4z"/>
		<path fill="none" stroke="#FFC122" stroke-width="0.3533" stroke-miterlimit="10" d="M186.1,142.4c0.1-0.1,0.1-0.1,0.2,0
			c0.1,0.1,0.1,0.3,0.2,0.4c0.1,0.1,0,0.2-0.1,0.2c-0.1,0-0.3,0-0.5,0c-0.1,0-0.2-0.1-0.1-0.2C185.9,142.7,186,142.5,186.1,142.4z"
			/>
	</g>
	<path fill="#FFFFFF" d="M138.7,108.1c0,0.7-0.2,1.3-0.5,1.9c-0.5,0.9-1.5,1.6-2.5,1.8c-0.1,0-0.3,0-0.5,0h-22.1c-0.1,0-0.2,0-0.3,0
		s-0.2,0-0.3,0c-2.1,0-3.7-1.7-3.7-3.7c0-2.1,1.7-3.7,3.7-3.7c0.2,0,0.4,0,0.6,0.1c-0.1-0.9-0.1-1.8,0.2-2.7c1-3.4,4.5-5.3,7.9-4.3
		c1.7,0.5,3.1,1.7,3.9,3.1c0.8-0.5,1.7-0.8,2.7-0.8c2.9,0,5.3,2.3,5.3,5.2c0.5-0.3,1.2-0.5,1.9-0.5
		C137.1,104.3,138.7,106,138.7,108.1z"/>
</g>
<g>
	<circle fill="#62D4D4" stroke="#62D4D4" stroke-width="10" stroke-miterlimit="10" cx="157.1" cy="201.5" r="21.6"/>
	<g>
		<polygon fill="#9A916F" points="152.7,180.6 154.3,181.3 156.1,182.1 152.7,182.1 149.2,182.1 150.9,181.3 		"/>
		<rect x="145.1" y="191.5" fill="#FFC122" width="24.5" height="28.5"/>
		<polygon fill="#664D25" points="169.6,191.7 145.1,191.7 149.3,186.3 165.4,186.3 		"/>
		<rect x="145.1" y="191.5" fill="#FFAAA8" width="24.4" height="1.8"/>
		<rect x="149.3" y="182.1" fill="#664D25" width="6.7" height="6"/>
		<rect x="159" y="182.3" fill="#664D25" width="6.5" height="6"/>
		<polygon fill="#9A916F" points="162.3,180.7 163.9,181.5 165.7,182.2 162.3,182.2 158.9,182.2 160.6,181.5 		"/>
		<path fill="#FFFFFF" d="M151.9,196.1c1.2,0,2.2,1.1,2.2,2.3v3.8h-4.5v-3.8C149.7,197.1,150.7,196.1,151.9,196.1L151.9,196.1"/>
		<path fill="#A2A242" stroke="#A2A242" stroke-width="3.9972" stroke-miterlimit="10" d="M154.1,197.9c0-1-1-1.9-2.2-1.9
			s-2.2,0.8-2.2,1.9H154.1z"/>
		<path fill="#FFFFFF" d="M162.6,196.2c1.2,0,2.2,1.1,2.2,2.3v3.8h-4.5v-3.8C160.4,197.2,161.4,196.2,162.6,196.2L162.6,196.2"/>
		<path fill="#A2A242" stroke="#A2A242" stroke-width="3.9972" stroke-miterlimit="10" d="M164.8,198.1c0-1-1-1.9-2.2-1.9
			c-1.2,0-2.2,0.8-2.2,1.9H164.8z"/>
		<rect x="151.3" y="183.1" fill="#FFFFFF" width="2.7" height="2.3"/>
		<rect x="161" y="183.1" fill="#FFFFFF" width="2.7" height="2.3"/>
		<path fill="#FF5774" stroke="#FF5774" stroke-width="4.3468" stroke-miterlimit="10" d="M159.5,218.7c0-3.1-1-5.6-2.2-5.6
			c-1.2,0-2.2,2.5-2.2,5.6H159.5z"/>
		<path fill="#FFFFFF" d="M151.9,204.6c1.2,0,2.2,1.1,2.2,2.3v3.8h-4.5v-3.8C149.7,205.6,150.7,204.6,151.9,204.6L151.9,204.6"/>
		<path fill="#A2A242" stroke="#A2A242" stroke-width="3.9972" stroke-miterlimit="10" d="M154.1,206.5c0-1-1-1.9-2.2-1.9
			s-2.2,0.8-2.2,1.9H154.1z"/>
		<path fill="#FFFFFF" d="M162.6,204.7c1.2,0,2.2,1.1,2.2,2.3v3.8h-4.5V207C160.4,205.7,161.4,204.7,162.6,204.7L162.6,204.7"/>
		<path fill="#A2A242" stroke="#A2A242" stroke-width="3.9972" stroke-miterlimit="10" d="M164.8,206.5c0-1-1-1.9-2.2-1.9
			c-1.2,0-2.2,0.8-2.2,1.9H164.8z"/>
	</g>
	<rect x="199.5" y="186.3" fill="none" width="33.1" height="14.3"/>
	<g enable-background="new    ">
		<path fill="#205D76" d="M204.9,192.4c0,0.7-0.2,1.2-0.7,1.6c-0.5,0.4-1.2,0.6-2,0.6s-1.6-0.1-2.1-0.4V193c0.4,0.2,0.7,0.3,1.1,0.4
			s0.8,0.1,1.1,0.1c0.5,0,0.9-0.1,1.1-0.3c0.2-0.2,0.4-0.4,0.4-0.8c0-0.3-0.1-0.5-0.3-0.7c-0.2-0.2-0.7-0.4-1.3-0.7
			c-0.7-0.3-1.2-0.6-1.5-1c-0.3-0.4-0.4-0.8-0.4-1.3c0-0.6,0.2-1.1,0.7-1.5s1.1-0.6,1.8-0.6c0.7,0,1.5,0.2,2.2,0.5l-0.4,1
			c-0.7-0.3-1.3-0.4-1.8-0.4c-0.4,0-0.7,0.1-0.9,0.3c-0.2,0.2-0.3,0.4-0.3,0.7c0,0.2,0,0.4,0.1,0.5c0.1,0.1,0.2,0.3,0.4,0.4
			c0.2,0.1,0.5,0.3,1,0.5c0.6,0.2,1,0.5,1.2,0.7c0.3,0.2,0.5,0.4,0.6,0.7C204.9,191.7,204.9,192,204.9,192.4z"/>
		<path fill="#205D76" d="M207.5,194.5h-1.2v-8.2h1.2V194.5z"/>
		<path fill="#205D76" d="M211.8,194.6c-0.9,0-1.6-0.3-2.1-0.8c-0.5-0.5-0.8-1.3-0.8-2.2c0-1,0.2-1.7,0.7-2.2c0.5-0.5,1.1-0.8,2-0.8
			c0.8,0,1.4,0.2,1.8,0.7c0.4,0.5,0.7,1.1,0.7,1.9v0.7h-3.9c0,0.6,0.2,1,0.5,1.3c0.3,0.3,0.7,0.5,1.2,0.5c0.3,0,0.7,0,1-0.1
			c0.3-0.1,0.6-0.2,1-0.3v1c-0.3,0.1-0.6,0.2-0.9,0.3C212.6,194.5,212.2,194.6,211.8,194.6z M211.6,189.5c-0.4,0-0.7,0.1-0.9,0.4
			c-0.2,0.2-0.4,0.6-0.4,1.1h2.6c0-0.5-0.1-0.8-0.3-1.1C212.3,189.6,212,189.5,211.6,189.5z"/>
		<path fill="#205D76" d="M218,194.6c-0.9,0-1.6-0.3-2.1-0.8c-0.5-0.5-0.8-1.3-0.8-2.2c0-1,0.2-1.7,0.7-2.2c0.5-0.5,1.1-0.8,2-0.8
			c0.8,0,1.4,0.2,1.8,0.7c0.4,0.5,0.7,1.1,0.7,1.9v0.7h-3.9c0,0.6,0.2,1,0.5,1.3c0.3,0.3,0.7,0.5,1.2,0.5c0.3,0,0.7,0,1-0.1
			c0.3-0.1,0.6-0.2,1-0.3v1c-0.3,0.1-0.6,0.2-0.9,0.3C218.8,194.5,218.4,194.6,218,194.6z M217.8,189.5c-0.4,0-0.7,0.1-0.9,0.4
			c-0.2,0.2-0.4,0.6-0.4,1.1h2.6c0-0.5-0.1-0.8-0.3-1.1C218.5,189.6,218.2,189.5,217.8,189.5z"/>
		<path fill="#205D76" d="M224.7,194.6c-0.7,0-1.3-0.3-1.7-0.8h-0.1c0,0.5,0.1,0.8,0.1,0.9v2.4h-1.2v-8.4h1c0,0.1,0.1,0.4,0.2,0.8
			h0.1c0.4-0.6,1-0.9,1.7-0.9c0.7,0,1.3,0.3,1.7,0.8c0.4,0.5,0.6,1.3,0.6,2.2c0,1-0.2,1.7-0.6,2.2S225.4,194.6,224.7,194.6z
			 M224.4,189.6c-0.5,0-0.8,0.1-1.1,0.4s-0.3,0.7-0.3,1.4v0.2c0,0.7,0.1,1.2,0.3,1.5c0.2,0.3,0.6,0.5,1.1,0.5c0.4,0,0.8-0.2,1-0.5
			s0.3-0.9,0.3-1.5c0-0.7-0.1-1.1-0.3-1.5C225.1,189.7,224.8,189.6,224.4,189.6z"/>
	</g>
	<circle fill="#FFC122" cx="202.1" cy="205.3" r="2"/>
	<rect x="197.5" y="202.7" fill="none" width="67" height="7.6"/>
	<g enable-background="new    ">
		<path fill="#EA6E2F" d="M209.3,207.8h-0.6v-4.3h-1.5V203h3.6v0.5h-1.5V207.8z"/>
		<path fill="#EA6E2F" d="M213.9,207.8v-2.3c0-0.3-0.1-0.5-0.2-0.7c-0.1-0.1-0.3-0.2-0.6-0.2c-0.4,0-0.6,0.1-0.8,0.3s-0.3,0.5-0.3,1
			v1.9h-0.5v-5.1h0.5v1.5c0,0.2,0,0.3,0,0.5h0c0.1-0.2,0.3-0.3,0.5-0.4s0.4-0.1,0.7-0.1c0.4,0,0.8,0.1,1,0.3s0.3,0.5,0.3,1v2.3
			H213.9z"/>
		<path fill="#EA6E2F" d="M217,207.8c-0.5,0-0.9-0.2-1.2-0.5c-0.3-0.3-0.5-0.8-0.5-1.3c0-0.6,0.1-1,0.4-1.4s0.7-0.5,1.1-0.5
			c0.4,0,0.8,0.1,1.1,0.4c0.3,0.3,0.4,0.7,0.4,1.2v0.3h-2.5c0,0.4,0.1,0.7,0.3,1c0.2,0.2,0.5,0.3,0.8,0.3c0.4,0,0.8-0.1,1.1-0.2v0.5
			c-0.2,0.1-0.4,0.1-0.5,0.2C217.5,207.8,217.3,207.8,217,207.8z M216.9,204.6c-0.3,0-0.5,0.1-0.7,0.3c-0.2,0.2-0.3,0.4-0.3,0.8h1.9
			c0-0.3-0.1-0.6-0.2-0.8C217.4,204.7,217.2,204.6,216.9,204.6z"/>
		<path fill="#EA6E2F" d="M223.8,206.5c0,0.4-0.2,0.7-0.5,1s-0.7,0.4-1.2,0.4c-0.6,0-1-0.1-1.3-0.2v-0.5c0.2,0.1,0.4,0.1,0.6,0.2
			c0.2,0,0.5,0.1,0.7,0.1c0.4,0,0.6-0.1,0.8-0.2s0.3-0.3,0.3-0.6c0-0.2,0-0.3-0.1-0.4c-0.1-0.1-0.2-0.2-0.3-0.3s-0.4-0.2-0.7-0.3
			c-0.4-0.2-0.8-0.3-0.9-0.6c-0.2-0.2-0.3-0.5-0.3-0.8c0-0.4,0.1-0.7,0.4-0.9s0.6-0.3,1.1-0.3c0.5,0,0.9,0.1,1.3,0.3l-0.2,0.5
			c-0.4-0.2-0.8-0.2-1.1-0.2c-0.3,0-0.5,0.1-0.7,0.2s-0.2,0.3-0.2,0.5c0,0.2,0,0.3,0.1,0.4c0.1,0.1,0.2,0.2,0.3,0.3
			c0.1,0.1,0.4,0.2,0.7,0.3c0.5,0.2,0.8,0.4,1,0.6C223.7,205.9,223.8,206.2,223.8,206.5z"/>
		<path fill="#EA6E2F" d="M227.1,207.8v-2.3c0-0.3-0.1-0.5-0.2-0.7c-0.1-0.1-0.3-0.2-0.6-0.2c-0.4,0-0.6,0.1-0.8,0.3
			c-0.2,0.2-0.3,0.5-0.3,1v1.9h-0.5v-3.6h0.4l0.1,0.5h0c0.1-0.2,0.3-0.3,0.5-0.4s0.4-0.1,0.7-0.1c0.4,0,0.8,0.1,1,0.3
			c0.2,0.2,0.3,0.5,0.3,1v2.3H227.1z"/>
		<path fill="#EA6E2F" d="M231.8,206c0,0.6-0.1,1-0.4,1.4s-0.7,0.5-1.2,0.5c-0.3,0-0.6-0.1-0.8-0.2c-0.2-0.2-0.4-0.4-0.6-0.6
			c-0.1-0.3-0.2-0.6-0.2-1c0-0.6,0.1-1,0.4-1.4c0.3-0.3,0.7-0.5,1.2-0.5c0.5,0,0.9,0.2,1.2,0.5S231.8,205.4,231.8,206z M229.1,206
			c0,0.5,0.1,0.8,0.3,1c0.2,0.2,0.5,0.4,0.8,0.4s0.6-0.1,0.8-0.4c0.2-0.2,0.3-0.6,0.3-1c0-0.5-0.1-0.8-0.3-1s-0.5-0.4-0.8-0.4
			c-0.4,0-0.6,0.1-0.8,0.3C229.2,205.2,229.1,205.5,229.1,206z"/>
		<path fill="#EA6E2F" d="M235.9,206c0,0.6-0.1,1-0.4,1.4s-0.7,0.5-1.2,0.5c-0.3,0-0.6-0.1-0.8-0.2c-0.2-0.2-0.4-0.4-0.6-0.6
			c-0.1-0.3-0.2-0.6-0.2-1c0-0.6,0.1-1,0.4-1.4c0.3-0.3,0.7-0.5,1.2-0.5c0.5,0,0.9,0.2,1.2,0.5S235.9,205.4,235.9,206z M233.1,206
			c0,0.5,0.1,0.8,0.3,1c0.2,0.2,0.5,0.4,0.8,0.4s0.6-0.1,0.8-0.4c0.2-0.2,0.3-0.6,0.3-1c0-0.5-0.1-0.8-0.3-1s-0.5-0.4-0.8-0.4
			c-0.4,0-0.6,0.1-0.8,0.3C233.2,205.2,233.1,205.5,233.1,206z"/>
		<path fill="#EA6E2F" d="M239.1,207.8h-2.6v-0.4l1.9-2.8h-1.8v-0.4h2.4v0.4l-1.9,2.7h2V207.8z"/>
		<path fill="#EA6E2F" d="M241.4,207.8c-0.5,0-0.9-0.2-1.2-0.5c-0.3-0.3-0.5-0.8-0.5-1.3c0-0.6,0.1-1,0.4-1.4s0.7-0.5,1.1-0.5
			c0.4,0,0.8,0.1,1.1,0.4c0.3,0.3,0.4,0.7,0.4,1.2v0.3h-2.5c0,0.4,0.1,0.7,0.3,1c0.2,0.2,0.5,0.3,0.8,0.3c0.4,0,0.8-0.1,1.1-0.2v0.5
			c-0.2,0.1-0.4,0.1-0.5,0.2C241.9,207.8,241.7,207.8,241.4,207.8z M241.3,204.6c-0.3,0-0.5,0.1-0.7,0.3c-0.2,0.2-0.3,0.4-0.3,0.8
			h1.9c0-0.3-0.1-0.6-0.2-0.8C241.8,204.7,241.6,204.6,241.3,204.6z"/>
		<path fill="#EA6E2F" d="M245.5,207.8V203h0.6v4.8H245.5z"/>
		<path fill="#EA6E2F" d="M249.7,207.8v-2.3c0-0.3-0.1-0.5-0.2-0.7c-0.1-0.1-0.3-0.2-0.6-0.2c-0.4,0-0.6,0.1-0.8,0.3
			c-0.2,0.2-0.3,0.5-0.3,1v1.9h-0.5v-3.6h0.4l0.1,0.5h0c0.1-0.2,0.3-0.3,0.5-0.4s0.4-0.1,0.7-0.1c0.4,0,0.8,0.1,1,0.3
			c0.2,0.2,0.3,0.5,0.3,1v2.3H249.7z"/>
		<path fill="#EA6E2F" d="M253.8,207.8v-2.3c0-0.3-0.1-0.5-0.2-0.7c-0.1-0.1-0.3-0.2-0.6-0.2c-0.4,0-0.6,0.1-0.8,0.3
			c-0.2,0.2-0.3,0.5-0.3,1v1.9h-0.5v-3.6h0.4l0.1,0.5h0c0.1-0.2,0.3-0.3,0.5-0.4s0.4-0.1,0.7-0.1c0.4,0,0.8,0.1,1,0.3
			c0.2,0.2,0.3,0.5,0.3,1v2.3H253.8z"/>
	</g>
	<circle fill="#FFC122" cx="201.9" cy="216.9" r="2"/>
	<rect x="187.9" y="214.2" fill="none" width="67" height="14.7"/>
	<g enable-background="new    ">
		<path fill="#EA6E2F" d="M210.7,219.3h-3.3v-0.4l2.5-3.8h-2.4v-0.5h3.1v0.4l-2.5,3.8h2.6V219.3z"/>
		<path fill="#EA6E2F" d="M213.8,219.3h-2.6v-0.4l1.9-2.8h-1.8v-0.4h2.4v0.4l-1.9,2.7h2V219.3z"/>
		<path fill="#EA6E2F" d="M216.9,219.3h-2.6v-0.4l1.9-2.8h-1.8v-0.4h2.4v0.4l-1.9,2.7h2V219.3z"/>
		<path fill="#EA6E2F" d="M223.2,219.3h-0.6v-2.2h-2.5v2.2h-0.6v-4.8h0.6v2h2.5v-2h0.6V219.3z"/>
		<path fill="#EA6E2F" d="M227.5,217.5c0,0.6-0.1,1-0.4,1.4s-0.7,0.5-1.2,0.5c-0.3,0-0.6-0.1-0.8-0.2c-0.2-0.2-0.4-0.4-0.6-0.6
			c-0.1-0.3-0.2-0.6-0.2-1c0-0.6,0.1-1,0.4-1.4c0.3-0.3,0.7-0.5,1.2-0.5c0.5,0,0.9,0.2,1.2,0.5S227.5,216.9,227.5,217.5z
			 M224.8,217.5c0,0.5,0.1,0.8,0.3,1c0.2,0.2,0.5,0.4,0.8,0.4s0.6-0.1,0.8-0.4c0.2-0.2,0.3-0.6,0.3-1c0-0.5-0.1-0.8-0.3-1
			s-0.5-0.4-0.8-0.4c-0.4,0-0.6,0.1-0.8,0.3C224.9,216.7,224.8,217.1,224.8,217.5z"/>
		<path fill="#EA6E2F" d="M229.6,218.9c0.1,0,0.2,0,0.3,0c0.1,0,0.2,0,0.2,0v0.4c-0.1,0-0.1,0.1-0.3,0.1c-0.1,0-0.2,0-0.3,0
			c-0.7,0-1-0.4-1-1.1v-2.1H228v-0.3l0.5-0.2l0.2-0.8h0.3v0.8h1v0.4h-1v2.1c0,0.2,0.1,0.4,0.2,0.5
			C229.3,218.9,229.4,218.9,229.6,218.9z"/>
		<path fill="#EA6E2F" d="M232.3,219.4c-0.5,0-0.9-0.2-1.2-0.5c-0.3-0.3-0.5-0.8-0.5-1.3c0-0.6,0.1-1,0.4-1.4s0.7-0.5,1.1-0.5
			c0.4,0,0.8,0.1,1.1,0.4c0.3,0.3,0.4,0.7,0.4,1.2v0.3h-2.5c0,0.4,0.1,0.7,0.3,1c0.2,0.2,0.5,0.3,0.8,0.3c0.4,0,0.8-0.1,1.1-0.2v0.5
			c-0.2,0.1-0.4,0.1-0.5,0.2C232.7,219.3,232.5,219.4,232.3,219.4z M232.1,216.1c-0.3,0-0.5,0.1-0.7,0.3c-0.2,0.2-0.3,0.4-0.3,0.8
			h1.9c0-0.3-0.1-0.6-0.2-0.8C232.6,216.2,232.4,216.1,232.1,216.1z"/>
		<path fill="#EA6E2F" d="M235.1,219.3h-0.5v-5.1h0.5V219.3z"/>
	</g>
	<line fill="none" stroke="#EA6E2F" stroke-width="0.7" stroke-miterlimit="10" x1="207.9" y1="209.1" x2="255.5" y2="209.1"/>
	<line fill="none" stroke="#EA6E2F" stroke-width="0.7" stroke-miterlimit="10" x1="207.3" y1="220.5" x2="235.9" y2="220.5"/>
</g>
<g>
	<circle fill="#FFA09E" stroke="#FFA09E" stroke-width="10" stroke-miterlimit="10" cx="159.7" cy="267.3" r="21.9"/>
	<rect x="201.5" y="251.4" fill="none" width="45.5" height="34.3"/>
	<g enable-background="new    ">
		<path fill="#205D76" d="M203.8,259.6h-1.2v-7.7h4.3v1.1h-3.1v2.4h2.9v1.1h-2.9V259.6z"/>
		<path fill="#205D76" d="M213.3,256.7c0,1-0.2,1.7-0.7,2.2s-1.2,0.8-2,0.8c-0.5,0-1-0.1-1.4-0.4c-0.4-0.2-0.7-0.6-1-1.1
			c-0.2-0.5-0.3-1-0.3-1.6c0-0.9,0.2-1.7,0.7-2.2c0.5-0.5,1.2-0.8,2-0.8c0.8,0,1.5,0.3,2,0.8S213.3,255.8,213.3,256.7z M209.1,256.7
			c0,1.3,0.5,2,1.5,2c1,0,1.5-0.7,1.5-2c0-1.3-0.5-2-1.5-2c-0.5,0-0.9,0.2-1.1,0.5S209.1,256,209.1,256.7z"/>
		<path fill="#205D76" d="M219.9,256.7c0,1-0.2,1.7-0.7,2.2s-1.2,0.8-2,0.8c-0.5,0-1-0.1-1.4-0.4c-0.4-0.2-0.7-0.6-1-1.1
			c-0.2-0.5-0.3-1-0.3-1.6c0-0.9,0.2-1.7,0.7-2.2c0.5-0.5,1.2-0.8,2-0.8c0.8,0,1.5,0.3,2,0.8S219.9,255.8,219.9,256.7z M215.7,256.7
			c0,1.3,0.5,2,1.5,2c1,0,1.5-0.7,1.5-2c0-1.3-0.5-2-1.5-2c-0.5,0-0.9,0.2-1.1,0.5S215.7,256,215.7,256.7z"/>
		<path fill="#205D76" d="M223.3,259.7c-0.7,0-1.3-0.3-1.7-0.8c-0.4-0.5-0.6-1.3-0.6-2.2c0-1,0.2-1.7,0.6-2.2c0.4-0.5,1-0.8,1.7-0.8
			c0.8,0,1.3,0.3,1.7,0.8h0.1c-0.1-0.4-0.1-0.7-0.1-1v-2.1h1.2v8.2h-1l-0.2-0.8H225C224.6,259.4,224,259.7,223.3,259.7z
			 M223.6,258.7c0.5,0,0.9-0.1,1.1-0.4s0.4-0.8,0.4-1.4v-0.2c0-0.7-0.1-1.3-0.4-1.6s-0.6-0.5-1.1-0.5c-0.4,0-0.8,0.2-1,0.5
			c-0.2,0.4-0.4,0.9-0.4,1.5c0,0.6,0.1,1.1,0.3,1.5C222.8,258.5,223.2,258.7,223.6,258.7z"/>
	</g>
	<g>
		<path fill="#A2A242" d="M171.5,256.9v29h-23.1v-29c0,0,2.5-0.8,2.7-0.9c1-0.5,1.9-1,2.7-1.7c1.6-1.3,1.9-2.7,1.9-4.4
			c0-1.5,1.7-2.9,3.9-2.9c1.1,0,2.1,0.3,2.8,0.8c0.7,0.5,1.1,1.2,1.1,2c0,1.7,0.5,3.1,2.1,4.4C167.3,255.6,169.3,256.5,171.5,256.9z
			"/>
		<g>
			<circle fill="#62D4D4" cx="159.7" cy="255.5" r="2.3"/>
			<g>
				
					<line fill="none" stroke="#205D76" stroke-width="0.2984" stroke-linecap="round" stroke-linejoin="round" stroke-miterlimit="10" x1="159.7" y1="255.7" x2="159.7" y2="254.2"/>
				
					<line fill="none" stroke="#205D76" stroke-width="0.2984" stroke-linecap="round" stroke-linejoin="round" stroke-miterlimit="10" x1="159.7" y1="255.7" x2="161.1" y2="255.7"/>
			</g>
		</g>
		<g>
			<path fill="#FFFFFF" d="M154.7,260.9c1.4,0,2.5,1,2.5,2.2v3.5h-5l0.1-3.5C152.2,261.9,153.3,260.9,154.7,260.9L154.7,260.9"/>
			<rect x="152.1" y="266.5" fill="#FFAAA8" width="5" height="0.6"/>
		</g>
		<g>
			<path fill="#FFFFFF" d="M164.9,260.9c1.4,0,2.5,1,2.5,2.2v3.5h-5l0.1-3.5C162.4,261.9,163.5,260.9,164.9,260.9L164.9,260.9"/>
			<rect x="162.4" y="266.5" fill="#FFAAA8" width="5" height="0.6"/>
		</g>
		<g>
			<path fill="#FFFFFF" d="M159.9,269.4c3.1,0,5.5,1,5.5,2.2v3.5h-11.1l0.1-3.5C154.3,270.4,156.8,269.4,159.9,269.4L159.9,269.4"/>
			<rect x="154.2" y="275.1" fill="#FFAAA8" width="11.1" height="0.6"/>
		</g>
		<g>
			<path fill="#FFAAA8" stroke="#FFAAA8" stroke-width="0.1747" stroke-miterlimit="10" d="M159.7,277.8c2.9,0,5.1,0.7,5.1,1.4
				l-4.6,2.1l-3.7-0.6l-2.1-1.5C154.6,278.5,156.9,277.8,159.7,277.8L159.7,277.8"/>
			<rect x="154.5" y="279.1" fill="#FFD265" width="10.4" height="6.8"/>
			<line fill="none" stroke="#A2A242" stroke-width="1.2282" stroke-miterlimit="10" x1="159.8" y1="279.1" x2="159.8" y2="285.9"/>
		</g>
	</g>
	<circle fill="#FFC122" cx="204.5" cy="270.7" r="2"/>
	<rect x="195.1" y="268" fill="none" width="67" height="14.7"/>
	<g enable-background="new    ">
		<path fill="#EA6E2F" d="M209.8,274.3c-0.2,0-0.4,0-0.5-0.1v-0.5c0.2,0,0.3,0.1,0.5,0.1c0.2,0,0.4-0.1,0.5-0.2
			c0.1-0.1,0.2-0.3,0.2-0.6v-4.8h0.6v4.7c0,0.4-0.1,0.7-0.3,1S210.2,274.3,209.8,274.3z"/>
		<path fill="#EA6E2F" d="M212.7,269.5v2.3c0,0.3,0.1,0.5,0.2,0.7c0.1,0.1,0.3,0.2,0.6,0.2c0.4,0,0.6-0.1,0.8-0.3s0.3-0.5,0.3-1
			v-1.9h0.5v3.6h-0.4l-0.1-0.5h0c-0.1,0.2-0.3,0.3-0.5,0.4c-0.2,0.1-0.4,0.1-0.7,0.1c-0.4,0-0.8-0.1-1-0.3s-0.3-0.5-0.3-1v-2.3
			H212.7z"/>
		<path fill="#EA6E2F" d="M218.6,272.1c0,0.3-0.1,0.6-0.4,0.8c-0.2,0.2-0.6,0.3-1,0.3c-0.5,0-0.8-0.1-1.1-0.2v-0.5
			c0.2,0.1,0.4,0.2,0.6,0.2s0.4,0.1,0.6,0.1c0.3,0,0.5,0,0.7-0.1c0.2-0.1,0.2-0.2,0.2-0.4c0-0.1-0.1-0.3-0.2-0.4s-0.4-0.2-0.7-0.3
			c-0.3-0.1-0.6-0.2-0.7-0.3c-0.1-0.1-0.2-0.2-0.3-0.3s-0.1-0.3-0.1-0.4c0-0.3,0.1-0.5,0.4-0.7c0.2-0.2,0.6-0.3,1-0.3
			c0.4,0,0.8,0.1,1.1,0.2l-0.2,0.4c-0.4-0.1-0.7-0.2-1-0.2c-0.3,0-0.4,0-0.6,0.1c-0.1,0.1-0.2,0.2-0.2,0.3c0,0.1,0,0.2,0.1,0.2
			s0.1,0.1,0.2,0.2c0.1,0.1,0.3,0.1,0.6,0.3c0.4,0.2,0.7,0.3,0.9,0.5S218.6,271.9,218.6,272.1z"/>
		<path fill="#EA6E2F" d="M220.7,272.7c0.1,0,0.2,0,0.3,0c0.1,0,0.2,0,0.2,0v0.4c-0.1,0-0.1,0.1-0.3,0.1c-0.1,0-0.2,0-0.3,0
			c-0.7,0-1-0.4-1-1.1v-2.1H219v-0.3l0.5-0.2l0.2-0.8h0.3v0.8h1v0.4h-1v2.1c0,0.2,0.1,0.4,0.2,0.5
			C220.3,272.6,220.5,272.7,220.7,272.7z"/>
		<path fill="#EA6E2F" d="M225.7,268.7c-0.5,0-0.9,0.2-1.2,0.5c-0.3,0.3-0.5,0.8-0.5,1.4c0,0.6,0.1,1.1,0.4,1.4
			c0.3,0.3,0.7,0.5,1.2,0.5c0.3,0,0.7-0.1,1.1-0.2v0.5c-0.3,0.1-0.7,0.2-1.2,0.2c-0.7,0-1.2-0.2-1.6-0.6c-0.4-0.4-0.6-1-0.6-1.8
			c0-0.5,0.1-0.9,0.3-1.3c0.2-0.4,0.4-0.7,0.8-0.9c0.3-0.2,0.8-0.3,1.2-0.3c0.5,0,0.9,0.1,1.3,0.3l-0.2,0.5
			C226.4,268.8,226.1,268.7,225.7,268.7z"/>
		<path fill="#EA6E2F" d="M230.9,271.3c0,0.6-0.1,1-0.4,1.4s-0.7,0.5-1.2,0.5c-0.3,0-0.6-0.1-0.8-0.2c-0.2-0.2-0.4-0.4-0.6-0.6
			c-0.1-0.3-0.2-0.6-0.2-1c0-0.6,0.1-1,0.4-1.4c0.3-0.3,0.7-0.5,1.2-0.5c0.5,0,0.9,0.2,1.2,0.5S230.9,270.7,230.9,271.3z
			 M228.2,271.3c0,0.5,0.1,0.8,0.3,1c0.2,0.2,0.5,0.4,0.8,0.4s0.6-0.1,0.8-0.4c0.2-0.2,0.3-0.6,0.3-1c0-0.5-0.1-0.8-0.3-1
			s-0.5-0.4-0.8-0.4c-0.4,0-0.6,0.1-0.8,0.3C228.3,270.5,228.2,270.8,228.2,271.3z"/>
		<path fill="#EA6E2F" d="M234.9,271.3c0,0.6-0.1,1-0.4,1.4s-0.7,0.5-1.2,0.5c-0.3,0-0.6-0.1-0.8-0.2c-0.2-0.2-0.4-0.4-0.6-0.6
			c-0.1-0.3-0.2-0.6-0.2-1c0-0.6,0.1-1,0.4-1.4c0.3-0.3,0.7-0.5,1.2-0.5c0.5,0,0.9,0.2,1.2,0.5S234.9,270.7,234.9,271.3z
			 M232.2,271.3c0,0.5,0.1,0.8,0.3,1c0.2,0.2,0.5,0.4,0.8,0.4s0.6-0.1,0.8-0.4c0.2-0.2,0.3-0.6,0.3-1c0-0.5-0.1-0.8-0.3-1
			s-0.5-0.4-0.8-0.4c-0.4,0-0.6,0.1-0.8,0.3C232.3,270.5,232.2,270.8,232.2,271.3z"/>
		<path fill="#EA6E2F" d="M236.4,271.3c0.1-0.1,0.2-0.3,0.4-0.5l1.2-1.2h0.6l-1.4,1.5l1.5,2h-0.7l-1.3-1.7l-0.4,0.4v1.3h-0.5V268
			h0.5v2.7C236.4,270.8,236.4,271,236.4,271.3L236.4,271.3z"/>
		<path fill="#EA6E2F" d="M239.3,268.5c0-0.1,0-0.2,0.1-0.3c0.1-0.1,0.1-0.1,0.2-0.1c0.1,0,0.2,0,0.2,0.1c0.1,0.1,0.1,0.1,0.1,0.3
			c0,0.1,0,0.2-0.1,0.3c-0.1,0.1-0.1,0.1-0.2,0.1c-0.1,0-0.2,0-0.2-0.1C239.3,268.8,239.3,268.7,239.3,268.5z M239.9,273.1h-0.5
			v-3.6h0.5V273.1z"/>
		<path fill="#EA6E2F" d="M242.5,273.1c-0.5,0-0.9-0.2-1.2-0.5c-0.3-0.3-0.5-0.8-0.5-1.3c0-0.6,0.1-1,0.4-1.4s0.7-0.5,1.1-0.5
			c0.4,0,0.8,0.1,1.1,0.4c0.3,0.3,0.4,0.7,0.4,1.2v0.3h-2.5c0,0.4,0.1,0.7,0.3,1c0.2,0.2,0.5,0.3,0.8,0.3c0.4,0,0.8-0.1,1.1-0.2v0.5
			c-0.2,0.1-0.4,0.1-0.5,0.2C243,273.1,242.8,273.1,242.5,273.1z M242.4,269.9c-0.3,0-0.5,0.1-0.7,0.3c-0.2,0.2-0.3,0.4-0.3,0.8h1.9
			c0-0.3-0.1-0.6-0.2-0.8C242.9,270,242.7,269.9,242.4,269.9z"/>
		<path fill="#EA6E2F" d="M247.1,272.1c0,0.3-0.1,0.6-0.4,0.8c-0.2,0.2-0.6,0.3-1,0.3c-0.5,0-0.8-0.1-1.1-0.2v-0.5
			c0.2,0.1,0.4,0.2,0.6,0.2s0.4,0.1,0.6,0.1c0.3,0,0.5,0,0.7-0.1c0.2-0.1,0.2-0.2,0.2-0.4c0-0.1-0.1-0.3-0.2-0.4s-0.4-0.2-0.7-0.3
			c-0.3-0.1-0.6-0.2-0.7-0.3c-0.1-0.1-0.2-0.2-0.3-0.3s-0.1-0.3-0.1-0.4c0-0.3,0.1-0.5,0.4-0.7c0.2-0.2,0.6-0.3,1-0.3
			c0.4,0,0.8,0.1,1.1,0.2l-0.2,0.4c-0.4-0.1-0.7-0.2-1-0.2c-0.3,0-0.4,0-0.6,0.1c-0.1,0.1-0.2,0.2-0.2,0.3c0,0.1,0,0.2,0.1,0.2
			s0.1,0.1,0.2,0.2c0.1,0.1,0.3,0.1,0.6,0.3c0.4,0.2,0.7,0.3,0.9,0.5S247.1,271.9,247.1,272.1z"/>
	</g>
	<circle fill="#FFC122" cx="204.5" cy="281.9" r="2"/>
	<rect x="189.9" y="279.3" fill="none" width="67" height="14.7"/>
	<g enable-background="new    ">
		<path fill="#EA6E2F" d="M211.7,280c-0.5,0-0.9,0.2-1.2,0.5c-0.3,0.3-0.5,0.8-0.5,1.4c0,0.6,0.1,1.1,0.4,1.4
			c0.3,0.3,0.7,0.5,1.2,0.5c0.3,0,0.7-0.1,1.1-0.2v0.5c-0.3,0.1-0.7,0.2-1.2,0.2c-0.7,0-1.2-0.2-1.6-0.6c-0.4-0.4-0.6-1-0.6-1.8
			c0-0.5,0.1-0.9,0.3-1.3c0.2-0.4,0.4-0.7,0.8-0.9c0.3-0.2,0.8-0.3,1.2-0.3c0.5,0,0.9,0.1,1.3,0.3l-0.2,0.5
			C212.5,280.1,212.1,280,211.7,280z"/>
		<path fill="#EA6E2F" d="M216,284.3l-0.1-0.5h0c-0.2,0.2-0.4,0.4-0.5,0.5s-0.4,0.1-0.7,0.1c-0.4,0-0.6-0.1-0.8-0.3
			c-0.2-0.2-0.3-0.4-0.3-0.8c0-0.7,0.6-1.1,1.7-1.1l0.6,0V282c0-0.3-0.1-0.5-0.2-0.6c-0.1-0.1-0.3-0.2-0.6-0.2c-0.3,0-0.6,0.1-1,0.3
			L214,281c0.2-0.1,0.4-0.2,0.6-0.2s0.4-0.1,0.6-0.1c0.4,0,0.7,0.1,0.9,0.3c0.2,0.2,0.3,0.5,0.3,0.9v2.4H216z M214.8,283.9
			c0.3,0,0.6-0.1,0.8-0.3s0.3-0.4,0.3-0.8v-0.3l-0.5,0c-0.4,0-0.7,0.1-0.9,0.2s-0.3,0.3-0.3,0.6c0,0.2,0.1,0.3,0.2,0.4
			C214.4,283.9,214.6,283.9,214.8,283.9z"/>
		<path fill="#EA6E2F" d="M218.1,282.5c0.1-0.1,0.2-0.3,0.4-0.5l1.2-1.2h0.6l-1.4,1.5l1.5,2h-0.7l-1.3-1.7l-0.4,0.4v1.3h-0.5v-5.1
			h0.5v2.7C218.1,282.1,218.1,282.2,218.1,282.5L218.1,282.5z"/>
		<path fill="#EA6E2F" d="M222.5,284.4c-0.5,0-0.9-0.2-1.2-0.5c-0.3-0.3-0.5-0.8-0.5-1.3c0-0.6,0.1-1,0.4-1.4s0.7-0.5,1.1-0.5
			c0.4,0,0.8,0.1,1.1,0.4c0.3,0.3,0.4,0.7,0.4,1.2v0.3h-2.5c0,0.4,0.1,0.7,0.3,1c0.2,0.2,0.5,0.3,0.8,0.3c0.4,0,0.8-0.1,1.1-0.2v0.5
			c-0.2,0.1-0.4,0.1-0.5,0.2C223,284.4,222.8,284.4,222.5,284.4z M222.4,281.1c-0.3,0-0.5,0.1-0.7,0.3c-0.2,0.2-0.3,0.4-0.3,0.8h1.9
			c0-0.3-0.1-0.6-0.2-0.8C222.9,281.2,222.7,281.1,222.4,281.1z"/>
		<path fill="#EA6E2F" d="M228,284.3h-0.6v-4.3H226v-0.5h3.6v0.5H228V284.3z"/>
		<path fill="#EA6E2F" d="M233.3,282.5c0,0.6-0.1,1-0.4,1.4s-0.7,0.5-1.2,0.5c-0.3,0-0.6-0.1-0.8-0.2c-0.2-0.2-0.4-0.4-0.6-0.6
			c-0.1-0.3-0.2-0.6-0.2-1c0-0.6,0.1-1,0.4-1.4c0.3-0.3,0.7-0.5,1.2-0.5c0.5,0,0.9,0.2,1.2,0.5S233.3,282,233.3,282.5z M230.6,282.5
			c0,0.5,0.1,0.8,0.3,1c0.2,0.2,0.5,0.4,0.8,0.4s0.6-0.1,0.8-0.4c0.2-0.2,0.3-0.6,0.3-1c0-0.5-0.1-0.8-0.3-1s-0.5-0.4-0.8-0.4
			c-0.4,0-0.6,0.1-0.8,0.3C230.6,281.7,230.6,282.1,230.6,282.5z"/>
		<path fill="#EA6E2F" d="M237.3,282.5c0,0.6-0.1,1-0.4,1.4s-0.7,0.5-1.2,0.5c-0.3,0-0.6-0.1-0.8-0.2c-0.2-0.2-0.4-0.4-0.6-0.6
			c-0.1-0.3-0.2-0.6-0.2-1c0-0.6,0.1-1,0.4-1.4c0.3-0.3,0.7-0.5,1.2-0.5c0.5,0,0.9,0.2,1.2,0.5S237.3,282,237.3,282.5z M234.6,282.5
			c0,0.5,0.1,0.8,0.3,1c0.2,0.2,0.5,0.4,0.8,0.4s0.6-0.1,0.8-0.4c0.2-0.2,0.3-0.6,0.3-1c0-0.5-0.1-0.8-0.3-1s-0.5-0.4-0.8-0.4
			c-0.4,0-0.6,0.1-0.8,0.3C234.7,281.7,234.6,282.1,234.6,282.5z"/>
	</g>
	<line fill="none" stroke="#EA6E2F" stroke-width="0.7" stroke-miterlimit="10" x1="209.7" y1="285.3" x2="238.3" y2="285.3"/>
	<line fill="none" stroke="#EA6E2F" stroke-width="0.7" stroke-miterlimit="10" x1="208.7" y1="274.5" x2="247.1" y2="274.5"/>
</g>
<g>
	<circle fill="#A2A242" stroke="#A2A242" stroke-width="10" stroke-miterlimit="10" cx="159" cy="331.2" r="21.9"/>
	<g>
		<rect x="200.9" y="314.1" fill="none" width="50.7" height="15.1"/>
		<g enable-background="new    ">
			<path fill="#205D76" d="M206.3,320.1c0,0.7-0.2,1.2-0.7,1.6c-0.5,0.4-1.2,0.6-2,0.6s-1.6-0.1-2.1-0.4v-1.2
				c0.4,0.2,0.7,0.3,1.1,0.4s0.8,0.1,1.1,0.1c0.5,0,0.9-0.1,1.1-0.3c0.2-0.2,0.4-0.4,0.4-0.8c0-0.3-0.1-0.5-0.3-0.7
				c-0.2-0.2-0.7-0.4-1.3-0.7c-0.7-0.3-1.2-0.6-1.5-1c-0.3-0.4-0.4-0.8-0.4-1.3c0-0.6,0.2-1.1,0.7-1.5c0.5-0.4,1.1-0.6,1.8-0.6
				c0.7,0,1.5,0.2,2.2,0.5l-0.4,1c-0.7-0.3-1.3-0.4-1.8-0.4c-0.4,0-0.7,0.1-0.9,0.3c-0.2,0.2-0.3,0.4-0.3,0.7c0,0.2,0,0.4,0.1,0.5
				c0.1,0.1,0.2,0.3,0.4,0.4c0.2,0.1,0.5,0.3,1,0.5c0.6,0.2,1,0.5,1.2,0.7c0.3,0.2,0.5,0.4,0.6,0.7
				C206.2,319.5,206.3,319.8,206.3,320.1z"/>
			<path fill="#205D76" d="M212.8,322.2h-1.2v-3.6c0-0.4-0.1-0.8-0.3-1s-0.5-0.3-0.9-0.3c-0.5,0-0.9,0.2-1.1,0.5
				c-0.2,0.3-0.4,0.8-0.4,1.6v2.9h-1.2V314h1.2v2.1c0,0.3,0,0.7-0.1,1.1h0.1c0.2-0.3,0.4-0.5,0.7-0.7s0.6-0.2,1-0.2
				c1.4,0,2.1,0.7,2.1,2.1V322.2z"/>
			<path fill="#205D76" d="M219.7,319.3c0,1-0.2,1.7-0.7,2.2s-1.2,0.8-2,0.8c-0.5,0-1-0.1-1.4-0.4c-0.4-0.2-0.7-0.6-1-1.1
				c-0.2-0.5-0.3-1-0.3-1.6c0-0.9,0.2-1.7,0.7-2.2c0.5-0.5,1.2-0.8,2-0.8c0.8,0,1.5,0.3,2,0.8S219.7,318.4,219.7,319.3z
				 M215.4,319.3c0,1.3,0.5,2,1.5,2c1,0,1.5-0.7,1.5-2c0-1.3-0.5-2-1.5-2c-0.5,0-0.9,0.2-1.1,0.5S215.4,318.7,215.4,319.3z"/>
			<path fill="#205D76" d="M224,322.3c-0.7,0-1.3-0.3-1.7-0.8h-0.1c0,0.5,0.1,0.8,0.1,0.9v2.4h-1.2v-8.4h1c0,0.1,0.1,0.4,0.2,0.8
				h0.1c0.4-0.6,1-0.9,1.7-0.9c0.7,0,1.3,0.3,1.7,0.8c0.4,0.5,0.6,1.3,0.6,2.2c0,1-0.2,1.7-0.6,2.2S224.8,322.3,224,322.3z
				 M223.7,317.3c-0.5,0-0.8,0.1-1.1,0.4c-0.2,0.3-0.3,0.7-0.3,1.4v0.2c0,0.7,0.1,1.2,0.3,1.5s0.6,0.5,1.1,0.5c0.4,0,0.8-0.2,1-0.5
				c0.2-0.4,0.3-0.9,0.3-1.5c0-0.7-0.1-1.1-0.3-1.5S224.2,317.3,223.7,317.3z"/>
		</g>
	</g>
	<g>
		<g>
			<rect x="143.6" y="332.1" fill="#FFA09E" width="30" height="16.1"/>
			<rect x="145.2" y="322.1" fill="#FFA09E" width="26.7" height="10.1"/>
			<rect x="148.7" y="314.7" fill="#FFA09E" width="19.5" height="7.5"/>
			<polygon fill="#205D76" points="158.4,311.6 163.3,313.2 168.1,314.7 158.4,314.7 148.7,314.7 153.5,313.2 			"/>
			<rect x="155.5" y="340.7" fill="#205D76" width="6.1" height="7.3"/>
			<rect x="145.2" y="322.1" fill="#205D76" width="26.7" height="1.1"/>
			<rect x="143.6" y="332.1" fill="#205D76" width="30" height="0.9"/>
			<path fill="#FFFFFF" d="M164.1,320.4c0-2.2-2.5-4-5.6-4s-5.6,1.8-5.6,4H164.1z"/>
			<rect x="152.9" y="320.4" fill="#205D76" width="11.5" height="0.4"/>
			<path fill="#FFFFFF" d="M161.5,340.8c0-0.9-1.3-1.5-3-1.5s-3,0.7-3,1.5H161.5z"/>
			<rect x="148.7" y="324.7" fill="#FFD265" width="7.6" height="4.9"/>
			<rect x="160.7" y="324.7" fill="#FFD265" width="7.6" height="4.9"/>
			<g>
				<rect x="143.7" y="333.1" fill="#FFFFFF" width="29.9" height="0.6"/>
				<ellipse fill="#FFFFFF" cx="146.1" cy="333.7" rx="2.4" ry="0.6"/>
				<ellipse fill="#FFFFFF" cx="150" cy="333.7" rx="2.4" ry="0.6"/>
				<ellipse fill="#FFFFFF" cx="154.2" cy="333.7" rx="2.4" ry="0.6"/>
				<ellipse fill="#FFFFFF" cx="158.5" cy="333.7" rx="2.4" ry="0.6"/>
				<ellipse fill="#FFFFFF" cx="162.7" cy="333.7" rx="2.4" ry="0.6"/>
				<ellipse fill="#FFFFFF" cx="166.9" cy="333.7" rx="2.4" ry="0.6"/>
				<ellipse fill="#FFFFFF" cx="171.1" cy="333.7" rx="2.4" ry="0.6"/>
			</g>
		</g>
		<ellipse fill="#FFFFFF" cx="149.5" cy="341.6" rx="2.6" ry="2.7"/>
		<ellipse fill="#FFFFFF" cx="168.1" cy="341.6" rx="2.6" ry="2.7"/>
	</g>
	<circle fill="#FFC122" cx="203.2" cy="334.2" r="2"/>
	<rect x="195.9" y="331.5" fill="none" width="67" height="5.3"/>
	<g enable-background="new    ">
		<path fill="#EA6E2F" d="M211.4,333.2c0,0.5-0.2,0.9-0.5,1.1s-0.8,0.4-1.4,0.4h-0.6v1.9h-0.6v-4.8h1.2
			C210.8,331.8,211.4,332.3,211.4,333.2z M208.9,334.3h0.5c0.5,0,0.8-0.1,1.1-0.2c0.2-0.2,0.3-0.4,0.3-0.8c0-0.3-0.1-0.5-0.3-0.7
			c-0.2-0.2-0.5-0.2-1-0.2h-0.6V334.3z"/>
		<path fill="#EA6E2F" d="M212.8,333v2.3c0,0.3,0.1,0.5,0.2,0.7c0.1,0.1,0.3,0.2,0.6,0.2c0.4,0,0.6-0.1,0.8-0.3s0.3-0.5,0.3-1V333
			h0.5v3.6h-0.4l-0.1-0.5h0c-0.1,0.2-0.3,0.3-0.5,0.4c-0.2,0.1-0.4,0.1-0.7,0.1c-0.4,0-0.8-0.1-1-0.3s-0.3-0.5-0.3-1V333H212.8z"/>
		<path fill="#EA6E2F" d="M218,336.7c-0.2,0-0.4,0-0.6-0.1s-0.4-0.2-0.5-0.4h0c0,0.2,0,0.4,0,0.6v1.5h-0.5V333h0.4l0.1,0.5h0
			c0.1-0.2,0.3-0.3,0.5-0.4s0.4-0.1,0.6-0.1c0.5,0,0.8,0.2,1.1,0.5c0.3,0.3,0.4,0.8,0.4,1.4c0,0.6-0.1,1-0.4,1.4
			C218.9,336.5,218.5,336.7,218,336.7z M218,333.4c-0.4,0-0.6,0.1-0.8,0.3c-0.2,0.2-0.2,0.5-0.3,1v0.1c0,0.5,0.1,0.9,0.3,1.1
			s0.4,0.3,0.8,0.3c0.3,0,0.5-0.1,0.7-0.4s0.3-0.6,0.3-1c0-0.4-0.1-0.8-0.3-1S218.3,333.4,218,333.4z"/>
		<path fill="#EA6E2F" d="M222.1,336.7c-0.2,0-0.4,0-0.6-0.1s-0.4-0.2-0.5-0.4h0c0,0.2,0,0.4,0,0.6v1.5h-0.5V333h0.4l0.1,0.5h0
			c0.1-0.2,0.3-0.3,0.5-0.4s0.4-0.1,0.6-0.1c0.5,0,0.8,0.2,1.1,0.5c0.3,0.3,0.4,0.8,0.4,1.4c0,0.6-0.1,1-0.4,1.4
			C222.9,336.5,222.6,336.7,222.1,336.7z M222,333.4c-0.4,0-0.6,0.1-0.8,0.3c-0.2,0.2-0.2,0.5-0.3,1v0.1c0,0.5,0.1,0.9,0.3,1.1
			s0.4,0.3,0.8,0.3c0.3,0,0.5-0.1,0.7-0.4s0.3-0.6,0.3-1c0-0.4-0.1-0.8-0.3-1S222.4,333.4,222,333.4z"/>
		<path fill="#EA6E2F" d="M224,333h0.6l0.8,2c0.2,0.5,0.3,0.8,0.3,1h0c0-0.1,0.1-0.3,0.2-0.6c0.1-0.3,0.4-1.1,0.9-2.5h0.6l-1.5,4.1
			c-0.2,0.4-0.3,0.7-0.5,0.9c-0.2,0.2-0.5,0.3-0.7,0.3c-0.2,0-0.3,0-0.5-0.1v-0.4c0.1,0,0.3,0,0.4,0c0.4,0,0.6-0.2,0.8-0.6l0.2-0.5
			L224,333z"/>
		<path fill="#EA6E2F" d="M232.7,333.2c0,0.5-0.2,0.9-0.5,1.1s-0.8,0.4-1.4,0.4h-0.6v1.9h-0.6v-4.8h1.2
			C232.1,331.8,232.7,332.3,232.7,333.2z M230.3,334.3h0.5c0.5,0,0.8-0.1,1.1-0.2c0.2-0.2,0.3-0.4,0.3-0.8c0-0.3-0.1-0.5-0.3-0.7
			c-0.2-0.2-0.5-0.2-1-0.2h-0.6V334.3z"/>
		<path fill="#EA6E2F" d="M235.8,336.6l-0.1-0.5h0c-0.2,0.2-0.4,0.4-0.5,0.5s-0.4,0.1-0.7,0.1c-0.4,0-0.6-0.1-0.8-0.3
			c-0.2-0.2-0.3-0.4-0.3-0.8c0-0.7,0.6-1.1,1.7-1.1l0.6,0v-0.2c0-0.3-0.1-0.5-0.2-0.6c-0.1-0.1-0.3-0.2-0.6-0.2
			c-0.3,0-0.6,0.1-1,0.3l-0.2-0.4c0.2-0.1,0.4-0.2,0.6-0.2s0.4-0.1,0.6-0.1c0.4,0,0.7,0.1,0.9,0.3c0.2,0.2,0.3,0.5,0.3,0.9v2.4
			H235.8z M234.6,336.2c0.3,0,0.6-0.1,0.8-0.3s0.3-0.4,0.3-0.8v-0.3l-0.5,0c-0.4,0-0.7,0.1-0.9,0.2s-0.3,0.3-0.3,0.6
			c0,0.2,0.1,0.3,0.2,0.4C234.2,336.2,234.4,336.2,234.6,336.2z"/>
		<path fill="#EA6E2F" d="M239,333c0.2,0,0.3,0,0.4,0l-0.1,0.5c-0.1,0-0.3,0-0.4,0c-0.3,0-0.5,0.1-0.7,0.4s-0.3,0.5-0.3,0.9v1.9
			h-0.5V333h0.4l0.1,0.7h0c0.1-0.2,0.3-0.4,0.5-0.5S238.8,333,239,333z"/>
		<path fill="#EA6E2F" d="M242.3,336.6l-0.1-0.5h0c-0.2,0.2-0.4,0.4-0.5,0.5s-0.4,0.1-0.7,0.1c-0.4,0-0.6-0.1-0.8-0.3
			c-0.2-0.2-0.3-0.4-0.3-0.8c0-0.7,0.6-1.1,1.7-1.1l0.6,0v-0.2c0-0.3-0.1-0.5-0.2-0.6c-0.1-0.1-0.3-0.2-0.6-0.2
			c-0.3,0-0.6,0.1-1,0.3l-0.2-0.4c0.2-0.1,0.4-0.2,0.6-0.2s0.4-0.1,0.6-0.1c0.4,0,0.7,0.1,0.9,0.3c0.2,0.2,0.3,0.5,0.3,0.9v2.4
			H242.3z M241,336.2c0.3,0,0.6-0.1,0.8-0.3s0.3-0.4,0.3-0.8v-0.3l-0.5,0c-0.4,0-0.7,0.1-0.9,0.2s-0.3,0.3-0.3,0.6
			c0,0.2,0.1,0.3,0.2,0.4C240.7,336.2,240.8,336.2,241,336.2z"/>
		<path fill="#EA6E2F" d="M246.2,336.1L246.2,336.1c-0.3,0.4-0.7,0.5-1.1,0.5c-0.5,0-0.8-0.2-1.1-0.5c-0.3-0.3-0.4-0.8-0.4-1.4
			c0-0.6,0.1-1,0.4-1.4c0.3-0.3,0.6-0.5,1.1-0.5c0.5,0,0.9,0.2,1.1,0.5h0l0-0.3l0-0.3v-1.5h0.5v5.1h-0.4L246.2,336.1z M245.1,336.2
			c0.4,0,0.6-0.1,0.8-0.3s0.2-0.5,0.2-1v-0.1c0-0.5-0.1-0.9-0.3-1.1s-0.4-0.3-0.8-0.3c-0.3,0-0.6,0.1-0.7,0.4
			c-0.2,0.2-0.3,0.6-0.3,1c0,0.5,0.1,0.8,0.2,1C244.6,336.1,244.8,336.2,245.1,336.2z"/>
		<path fill="#EA6E2F" d="M249.4,336.7c-0.5,0-0.9-0.2-1.2-0.5c-0.3-0.3-0.5-0.8-0.5-1.3c0-0.6,0.1-1,0.4-1.4s0.7-0.5,1.1-0.5
			c0.4,0,0.8,0.1,1.1,0.4c0.3,0.3,0.4,0.7,0.4,1.2v0.3h-2.5c0,0.4,0.1,0.7,0.3,1c0.2,0.2,0.5,0.3,0.8,0.3c0.4,0,0.8-0.1,1.1-0.2v0.5
			c-0.2,0.1-0.4,0.1-0.5,0.2C249.8,336.6,249.6,336.7,249.4,336.7z M249.2,333.4c-0.3,0-0.5,0.1-0.7,0.3c-0.2,0.2-0.3,0.4-0.3,0.8
			h1.9c0-0.3-0.1-0.6-0.2-0.8C249.7,333.5,249.5,333.4,249.2,333.4z"/>
	</g>
	<circle fill="#FFC122" cx="203.4" cy="345.5" r="2"/>
	<rect x="192.7" y="342.9" fill="none" width="67" height="14.7"/>
	<g enable-background="new    ">
		<path fill="#EA6E2F" d="M210.4,343.6c-0.5,0-0.9,0.2-1.2,0.5c-0.3,0.3-0.5,0.8-0.5,1.4c0,0.6,0.1,1.1,0.4,1.4
			c0.3,0.3,0.7,0.5,1.2,0.5c0.3,0,0.7-0.1,1.1-0.2v0.5c-0.3,0.1-0.7,0.2-1.2,0.2c-0.7,0-1.2-0.2-1.6-0.6c-0.4-0.4-0.6-1-0.6-1.8
			c0-0.5,0.1-0.9,0.3-1.3c0.2-0.4,0.4-0.7,0.8-0.9c0.3-0.2,0.8-0.3,1.2-0.3c0.5,0,0.9,0.1,1.3,0.3l-0.2,0.5
			C211.1,343.7,210.7,343.6,210.4,343.6z"/>
		<path fill="#EA6E2F" d="M215.5,346.1c0,0.6-0.1,1-0.4,1.4s-0.7,0.5-1.2,0.5c-0.3,0-0.6-0.1-0.8-0.2c-0.2-0.2-0.4-0.4-0.6-0.6
			c-0.1-0.3-0.2-0.6-0.2-1c0-0.6,0.1-1,0.4-1.4c0.3-0.3,0.7-0.5,1.2-0.5c0.5,0,0.9,0.2,1.2,0.5S215.5,345.6,215.5,346.1z
			 M212.8,346.1c0,0.5,0.1,0.8,0.3,1c0.2,0.2,0.5,0.4,0.8,0.4s0.6-0.1,0.8-0.4c0.2-0.2,0.3-0.6,0.3-1c0-0.5-0.1-0.8-0.3-1
			s-0.5-0.4-0.8-0.4c-0.4,0-0.6,0.1-0.8,0.3C212.9,345.3,212.8,345.7,212.8,346.1z"/>
		<path fill="#EA6E2F" d="M219.6,346.1c0,0.6-0.1,1-0.4,1.4s-0.7,0.5-1.2,0.5c-0.3,0-0.6-0.1-0.8-0.2c-0.2-0.2-0.4-0.4-0.6-0.6
			c-0.1-0.3-0.2-0.6-0.2-1c0-0.6,0.1-1,0.4-1.4c0.3-0.3,0.7-0.5,1.2-0.5c0.5,0,0.9,0.2,1.2,0.5S219.6,345.6,219.6,346.1z
			 M216.8,346.1c0,0.5,0.1,0.8,0.3,1c0.2,0.2,0.5,0.4,0.8,0.4s0.6-0.1,0.8-0.4c0.2-0.2,0.3-0.6,0.3-1c0-0.5-0.1-0.8-0.3-1
			s-0.5-0.4-0.8-0.4c-0.4,0-0.6,0.1-0.8,0.3C216.9,345.3,216.8,345.7,216.8,346.1z"/>
		<path fill="#EA6E2F" d="M221.1,347.9h-0.5v-5.1h0.5V347.9z"/>
		<path fill="#EA6E2F" d="M227.4,347.9h-0.7l-1.7-2.3l-0.5,0.4v1.9H224v-4.8h0.6v2.4l2.2-2.4h0.7l-1.9,2.1L227.4,347.9z"/>
		<path fill="#EA6E2F" d="M228,343.4c0-0.1,0-0.2,0.1-0.3c0.1-0.1,0.1-0.1,0.2-0.1c0.1,0,0.2,0,0.2,0.1c0.1,0.1,0.1,0.1,0.1,0.3
			c0,0.1,0,0.2-0.1,0.3c-0.1,0.1-0.1,0.1-0.2,0.1c-0.1,0-0.2,0-0.2-0.1C228,343.6,228,343.5,228,343.4z M228.6,347.9H228v-3.6h0.5
			V347.9z"/>
		<path fill="#EA6E2F" d="M230.9,347.6c0.1,0,0.2,0,0.3,0c0.1,0,0.2,0,0.2,0v0.4c-0.1,0-0.1,0.1-0.3,0.1c-0.1,0-0.2,0-0.3,0
			c-0.7,0-1-0.4-1-1.1v-2.1h-0.5v-0.3l0.5-0.2l0.2-0.8h0.3v0.8h1v0.4h-1v2.1c0,0.2,0.1,0.4,0.2,0.5
			C230.5,347.5,230.7,347.6,230.9,347.6z"/>
		<path fill="#EA6E2F" d="M233.2,347.6c0.1,0,0.2,0,0.3,0c0.1,0,0.2,0,0.2,0v0.4c-0.1,0-0.1,0.1-0.3,0.1c-0.1,0-0.2,0-0.3,0
			c-0.7,0-1-0.4-1-1.1v-2.1h-0.5v-0.3l0.5-0.2l0.2-0.8h0.3v0.8h1v0.4h-1v2.1c0,0.2,0.1,0.4,0.2,0.5
			C232.9,347.5,233,347.6,233.2,347.6z"/>
		<path fill="#EA6E2F" d="M235.9,348c-0.5,0-0.9-0.2-1.2-0.5c-0.3-0.3-0.5-0.8-0.5-1.3c0-0.6,0.1-1,0.4-1.4s0.7-0.5,1.1-0.5
			c0.4,0,0.8,0.1,1.1,0.4c0.3,0.3,0.4,0.7,0.4,1.2v0.3h-2.5c0,0.4,0.1,0.7,0.3,1c0.2,0.2,0.5,0.3,0.8,0.3c0.4,0,0.8-0.1,1.1-0.2v0.5
			c-0.2,0.1-0.4,0.1-0.5,0.2C236.4,348,236.2,348,235.9,348z M235.8,344.8c-0.3,0-0.5,0.1-0.7,0.3c-0.2,0.2-0.3,0.4-0.3,0.8h1.9
			c0-0.3-0.1-0.6-0.2-0.8C236.3,344.8,236.1,344.8,235.8,344.8z"/>
		<path fill="#EA6E2F" d="M240.6,347.9v-2.3c0-0.3-0.1-0.5-0.2-0.7c-0.1-0.1-0.3-0.2-0.6-0.2c-0.4,0-0.6,0.1-0.8,0.3
			c-0.2,0.2-0.3,0.5-0.3,1v1.9h-0.5v-3.6h0.4l0.1,0.5h0c0.1-0.2,0.3-0.3,0.5-0.4s0.4-0.1,0.7-0.1c0.4,0,0.8,0.1,1,0.3
			c0.2,0.2,0.3,0.5,0.3,1v2.3H240.6z"/>
		<path fill="#EA6E2F" d="M244.5,347c0,0.3-0.1,0.6-0.4,0.8c-0.2,0.2-0.6,0.3-1,0.3c-0.5,0-0.8-0.1-1.1-0.2v-0.5
			c0.2,0.1,0.4,0.2,0.6,0.2s0.4,0.1,0.6,0.1c0.3,0,0.5,0,0.7-0.1c0.2-0.1,0.2-0.2,0.2-0.4c0-0.1-0.1-0.3-0.2-0.4s-0.4-0.2-0.7-0.3
			c-0.3-0.1-0.6-0.2-0.7-0.3c-0.1-0.1-0.2-0.2-0.3-0.3s-0.1-0.3-0.1-0.4c0-0.3,0.1-0.5,0.4-0.7c0.2-0.2,0.6-0.3,1-0.3
			c0.4,0,0.8,0.1,1.1,0.2l-0.2,0.4c-0.4-0.1-0.7-0.2-1-0.2c-0.3,0-0.4,0-0.6,0.1c-0.1,0.1-0.2,0.2-0.2,0.3c0,0.1,0,0.2,0.1,0.2
			s0.1,0.1,0.2,0.2c0.1,0.1,0.3,0.1,0.6,0.3c0.4,0.2,0.7,0.3,0.9,0.5S244.5,346.7,244.5,347z"/>
	</g>
	<line fill="none" stroke="#EA6E2F" stroke-width="0.7" stroke-miterlimit="10" x1="208.1" y1="337.5" x2="250.5" y2="337.5"/>
	<line fill="none" stroke="#EA6E2F" stroke-width="0.7" stroke-miterlimit="10" x1="208.1" y1="349.3" x2="245.5" y2="349.3"/>
</g>
</svg>
